<svg xmlns="http://www.w3.org/2000/svg" width="24" height="17.734" viewBox="0 0 24 17.734">
  <path id="Path_48" data-name="Path 48" d="M16.436,1.836a2.954,2.954,0,0,1,2.113.973L19.655,6.5a40.622,40.622,0,0,1-15.328,0l1.14-3.689a2.941,2.941,0,0,1,2.079-.973A43.73,43.73,0,0,1,16.436,1.836Zm1.342,13.248v1.643a1.009,1.009,0,0,0,1.006,1.006h2.951a1,1,0,0,0,.973-1.006c0-2.482.034-4.964.034-7.446-.134-.3-.235-.637-.369-.939,2.65.235,1.912-2.415-1.107-2.18L19.924,2.339A3.524,3.524,0,0,0,17.207.327a41.486,41.486,0,0,0-10.4,0A3.524,3.524,0,0,0,4.093,2.339L2.718,6.163c-2.985-.235-3.756,2.415-1.073,2.18-.134.3-.235.637-.369.939v7.446a1.032,1.032,0,0,0,1.006,1.006H5.233A1.032,1.032,0,0,0,6.24,16.728V15.085ZM3.12,11.16c0-.47.034-1.073.034-1.308.034-.7,1.174-.771,1.476-.6.034,0,2.18.939,3.253,1.442a.915.915,0,0,1-.034.973C5.837,12.1,3.925,12.2,3.12,11.16Zm17.776,0c0-.47-.067-1.073-.067-1.308,0-.7-1.14-.771-1.442-.6-.067,0-2.18.939-3.253,1.442a.92.92,0,0,0,0,.973C18.18,12.1,20.058,12.2,20.9,11.16Z" fill="#fff" fill-rule="evenodd"/>
</svg>
