<svg xmlns="http://www.w3.org/2000/svg" xmlns:xlink="http://www.w3.org/1999/xlink" width="200.88" height="43.187" viewBox="0 0 200.88 43.187">
  <defs>
    <clipPath id="clip-path">
      <rect id="Rectangle_26" data-name="Rectangle 26" width="40" height="40" transform="translate(1094 174)" fill="#fff"/>
    </clipPath>
    <clipPath id="clip-path-2">
      <rect id="Rectangle_27" data-name="Rectangle 27" width="62" height="20" transform="translate(1154 186)" fill="#fff"/>
    </clipPath>
  </defs>
  <g id="Group_77" data-name="Group 77" transform="translate(-1094 -174)">
    <g id="Group_19" data-name="Group 19" clip-path="url(#clip-path)">
      <path id="Path_110" data-name="Path 110" d="M1129.26,210.676h-30.52a2.944,2.944,0,0,1-2.94-2.945V182.324a2.945,2.945,0,0,1,2.94-2.945h30.52a2.945,2.945,0,0,1,2.94,2.945v25.407A2.944,2.944,0,0,1,1129.26,210.676Z" fill="#fff"/>
      <path id="Path_111" data-name="Path 111" d="M1128.58,209.977h-29.16a2.812,2.812,0,0,1-2.81-2.813V182.89a2.813,2.813,0,0,1,2.81-2.814h29.16a2.813,2.813,0,0,1,2.81,2.814v24.274A2.812,2.812,0,0,1,1128.58,209.977Z" fill="#fff"/>
      <path id="Path_112" data-name="Path 112" d="M1130.23,187.6l-7.34-12.712a1.771,1.771,0,0,0-2.42-.648l-23.14,13.36Z" fill="#fff"/>
      <path id="Path_113" data-name="Path 113" d="M1095.8,197.829h36.4v-9.641a2.205,2.205,0,0,0-2.2-2.2h-32a2.205,2.205,0,0,0-2.2,2.2Z" fill="#fff"/>
      <path id="Path_114" data-name="Path 114" d="M1095.8,194.2v13.528a2.945,2.945,0,0,0,2.94,2.945h30.52a2.945,2.945,0,0,0,2.94-2.945V194.2a1.816,1.816,0,0,0-1.82-1.819h-32.76A1.816,1.816,0,0,0,1095.8,194.2Z" fill="#fff"/>
      <path id="Path_115" data-name="Path 115" d="M1126.71,187.225v23.451h2.55a2.944,2.944,0,0,0,2.94-2.944V192.716Z" fill="#fff"/>
      <path id="Path_116" data-name="Path 116" d="M1124.23,213.977l-25.56-2.968a3.243,3.243,0,0,1-2.87-3.227V182.1a1.083,1.083,0,0,0,.96,1.079l28.22,3.277a3.253,3.253,0,0,1,2.87,3.227V210.75A3.246,3.246,0,0,1,1124.23,213.977Z" fill="#fff"/>
      <path id="Path_117" data-name="Path 117" d="M1124.23,208.849l-25.56-2.968a3.244,3.244,0,0,1-2.87-3.227v5.13a3.243,3.243,0,0,0,2.87,3.226l25.56,2.968a3.246,3.246,0,0,0,3.62-3.227v-5.129A3.246,3.246,0,0,1,1124.23,208.849Z" fill="#fff"/>
      <path id="Path_118" data-name="Path 118" d="M1098.09,186.106a.67.67,0,0,1-.07,0l-1.16-.128a.588.588,0,1,1,.12-1.17l1.17.129a.588.588,0,0,1-.06,1.173Z" fill="#fff"/>
      <path id="Path_119" data-name="Path 119" d="M1122.12,212.039a.712.712,0,0,1-.08-.005l-2.27-.289a.588.588,0,1,1,.15-1.167l2.27.289a.588.588,0,0,1-.07,1.172Zm2.24-.291a.589.589,0,0,1-.26-1.121,2.339,2.339,0,0,0,1.24-1.279.585.585,0,0,1,.75-.362.6.6,0,0,1,.36.749,3.484,3.484,0,0,1-1.84,1.957A.632.632,0,0,1,1124.36,211.748Zm-6.79-.287a.549.549,0,0,1-.07-.005l-2.27-.289a.588.588,0,0,1,.14-1.167l2.28.289a.592.592,0,0,1,.51.658A.6.6,0,0,1,1117.57,211.461Zm-4.54-.578a.719.719,0,0,1-.08,0l-2.27-.289a.588.588,0,1,1,.15-1.167l2.27.289a.588.588,0,0,1-.07,1.172Zm-4.55-.578a.55.55,0,0,1-.07,0l-2.28-.289a.588.588,0,0,1,.15-1.167l2.28.289a.591.591,0,0,1,.51.658A.6.6,0,0,1,1108.48,210.3Zm-4.54-.578a.715.715,0,0,1-.08-.005l-2.27-.289a.588.588,0,1,1,.15-1.167l2.27.289a.588.588,0,0,1-.07,1.172Zm22.08-1.873a.584.584,0,0,1-.58-.588v-2.291a.585.585,0,1,1,1.17,0v2.291A.586.586,0,0,1,1126.02,207.854Zm0-4.582a.584.584,0,0,1-.58-.588v-2.291a.585.585,0,1,1,1.17,0v2.291A.586.586,0,0,1,1126.02,203.272Zm0-4.582a.584.584,0,0,1-.58-.588v-2.291a.585.585,0,1,1,1.17,0V198.1A.586.586,0,0,1,1126.02,198.69Zm0-4.582a.584.584,0,0,1-.58-.588v-2.291a.585.585,0,1,1,1.17,0v2.291A.587.587,0,0,1,1126.02,194.108Zm-.82-4.347a.578.578,0,0,1-.4-.162,2.894,2.894,0,0,0-1.71-.741l-.01,0a.588.588,0,1,1,.12-1.169h.01a4.085,4.085,0,0,1,2.4,1.057.59.59,0,0,1-.41,1.016Zm-4.34-1.152a.6.6,0,0,1-.06,0l-2.28-.251a.586.586,0,0,1-.52-.648.594.594,0,0,1,.65-.521l2.28.251a.588.588,0,0,1-.07,1.172Zm-4.55-.5c-.02,0-.04,0-.07,0l-2.27-.25a.588.588,0,0,1,.12-1.17l2.28.251a.588.588,0,0,1-.06,1.173Zm-4.56-.5a.405.405,0,0,1-.06,0l-2.28-.25a.588.588,0,1,1,.13-1.169l2.28.25a.588.588,0,0,1-.07,1.173Zm-4.55-.5-.07,0-2.27-.251a.588.588,0,1,1,.13-1.169l2.27.25a.588.588,0,0,1-.06,1.173Zm-4.56-.5c-.02,0-.04,0-.06,0l-2.28-.25a.589.589,0,0,1,.13-1.17l2.28.251a.588.588,0,0,1-.07,1.173Z" fill="#fff"/>
      <path id="Path_120" data-name="Path 120" d="M1099.39,209.149a.536.536,0,0,1-.08-.005l-1.17-.148a.588.588,0,1,1,.15-1.167l1.17.148a.588.588,0,0,1-.07,1.172Z" fill="#fff"/>
      <path id="Path_121" data-name="Path 121" d="M1121,178.379l-3.77,2.049a1.009,1.009,0,1,1-.96-1.776l3.76-2.048a1.011,1.011,0,0,1,.97,1.775Z" fill="#61db99"/>
      <path id="Path_122" data-name="Path 122" d="M1127.85,202.424l-3.74-3.736a2.878,2.878,0,0,0-5,1.95,2.887,2.887,0,0,0,.93,2.124l7.81,7.81v-8.148Z" fill="#fff"/>
      <path id="Path_123" data-name="Path 123" d="M1121.99,203.521a2.884,2.884,0,1,0-2.88-2.883A2.882,2.882,0,0,0,1121.99,203.521Z" fill="#fff"/>
      <path id="Path_124" data-name="Path 124" d="M1121.99,202.627a1.991,1.991,0,1,0-1.99-1.99A1.989,1.989,0,0,0,1121.99,202.627Z" fill="#fff"/>
      <path id="Path_125" data-name="Path 125" d="M1121.23,200.292a.412.412,0,0,0,0-.823.412.412,0,0,0,0,.823Z" fill="#fff"/>
      <path id="Path_126" data-name="Path 126" d="M1122.74,200.292a.412.412,0,1,0-.41-.411A.417.417,0,0,0,1122.74,200.292Z" fill="#fff"/>
      <path id="Path_127" data-name="Path 127" d="M1121.23,201.806a.412.412,0,0,0,0-.824.412.412,0,0,0,0,.824Z" fill="#fff"/>
      <path id="Path_128" data-name="Path 128" d="M1122.74,201.806a.412.412,0,1,0-.41-.412A.417.417,0,0,0,1122.74,201.806Z" fill="#fff"/>
    </g>
    <g id="Group_20" data-name="Group 20" clip-path="url(#clip-path-2)">
      <path id="Path_129" data-name="Path 129" d="M1180.87,205.712h-5.03l3.15-19.36h5.02Z" fill="#fff"/>
      <path id="Path_130" data-name="Path 130" d="M1199.07,186.824a12.41,12.41,0,0,0-4.5-.824c-4.96,0-8.45,2.636-8.47,6.4-.05,2.781,2.5,4.325,4.4,5.253,1.94.947,2.6,1.565,2.6,2.41-.02,1.3-1.57,1.9-3.02,1.9a10.015,10.015,0,0,1-4.71-1.03l-.66-.309-.7,4.346a15.347,15.347,0,0,0,5.6,1.03c5.27,0,8.7-2.6,8.74-6.612.02-2.2-1.32-3.893-4.22-5.272-1.75-.886-2.83-1.484-2.83-2.39.02-.824.91-1.668,2.9-1.668a8.576,8.576,0,0,1,3.74.741l.45.206Z" fill="#fff"/>
      <path id="Path_131" data-name="Path 131" d="M1205.75,198.853c.41-1.112,2-5.417,2-5.417-.02.042.42-1.132.67-1.853l.35,1.668s.95,4.634,1.15,5.6Zm6.2-12.5h-3.89a2.48,2.48,0,0,0-2.62,1.606l-7.46,17.754h5.27s.87-2.39,1.05-2.9h6.45c.15.679.6,2.9.6,2.9H1216Z" fill="#fff"/>
      <path id="Path_132" data-name="Path 132" d="M1171.65,186.352l-4.92,13.2-.54-2.678a14.838,14.838,0,0,0-6.94-8.115l4.5,16.931h5.32l7.89-19.34Z" fill="#fff"/>
      <path id="Path_133" data-name="Path 133" d="M1162.16,186.352h-8.08l-.08.391c6.3,1.606,10.48,5.479,12.19,10.134l-1.75-8.9A2.081,2.081,0,0,0,1162.16,186.352Z" fill="#faa61a"/>
    </g>
    <path id="Path_134" data-name="Path 134" d="M1250.09,216.955v-2.791a1.631,1.631,0,0,0-.11-.69,1.689,1.689,0,0,0-.37-.589,1.685,1.685,0,0,0-1.29-.488,1.767,1.767,0,0,0-.9.182,1.73,1.73,0,0,0-.68.609,1.625,1.625,0,0,0-.63-.6,1.7,1.7,0,0,0-.86-.193,1.492,1.492,0,0,0-1.31.66v-.548h-.98v4.446h.99v-2.447a1,1,0,0,1,.04-.453.915.915,0,0,1,.23-.394,1.025,1.025,0,0,1,.37-.259,1.114,1.114,0,0,1,.46-.075c.65,0,.97.419.97,1.172v2.474h.99v-2.465a1.149,1.149,0,0,1,.04-.452,1.041,1.041,0,0,1,.61-.652,1.069,1.069,0,0,1,.45-.077c.67,0,.99.419.99,1.172v2.474Zm14.6-4.446h-1.61V211.16h-.99v1.349h-.89v.883h.91v2.047c0,1.032.41,1.646,1.56,1.646a2.334,2.334,0,0,0,1.23-.344l-.29-.828a1.807,1.807,0,0,1-.86.251c-.47,0-.65-.3-.65-.744v-2.028h1.6Zm8.34-.112a1.322,1.322,0,0,0-1.19.651v-.539h-.97v4.446h.98v-2.493c0-.735.32-1.144.94-1.144a1.592,1.592,0,0,1,.61.111l.3-.93a2.052,2.052,0,0,0-.69-.121Zm-12.61.465a3.374,3.374,0,0,0-1.83-.465c-1.14,0-1.88.539-1.88,1.423,0,.726.54,1.172,1.55,1.312l.47.065c.54.074.79.214.79.465,0,.344-.36.539-1.03.539a2.4,2.4,0,0,1-1.49-.465l-.47.754a3.271,3.271,0,0,0,1.95.576c1.29,0,2.04-.6,2.04-1.451s-.59-1.19-1.57-1.33l-.47-.065c-.42-.056-.76-.139-.76-.437s.32-.521.86-.521a2.944,2.944,0,0,1,1.41.381Zm26.19-.465a1.322,1.322,0,0,0-1.19.651v-.539h-.97v4.446h.98v-2.493c0-.735.32-1.144.94-1.144a1.591,1.591,0,0,1,.61.111l.3-.93a2.053,2.053,0,0,0-.69-.121Zm-12.6,2.325a2.206,2.206,0,0,0,.16.915,2.231,2.231,0,0,0,.52.772,2.184,2.184,0,0,0,.79.5,2.318,2.318,0,0,0,.93.14,2.361,2.361,0,0,0,1.61-.53l-.47-.782a1.968,1.968,0,0,1-1.17.4,1.474,1.474,0,0,1-.95-.455,1.423,1.423,0,0,1,0-1.936,1.474,1.474,0,0,1,.95-.455,1.968,1.968,0,0,1,1.17.4l.47-.781a2.357,2.357,0,0,0-1.61-.531,2.317,2.317,0,0,0-.93.14,2.185,2.185,0,0,0-.79.5,2.231,2.231,0,0,0-.52.772,2.206,2.206,0,0,0-.16.915Zm9.16,0v-2.213h-.98v.539a1.712,1.712,0,0,0-.63-.494,1.692,1.692,0,0,0-.78-.157,2.364,2.364,0,0,0-1.66.681,2.3,2.3,0,0,0,0,3.289,2.364,2.364,0,0,0,1.66.681,1.68,1.68,0,0,0,.78-.158,1.709,1.709,0,0,0,.63-.493v.539h.98Zm-3.64,0a1.349,1.349,0,0,1,.26-.723,1.362,1.362,0,0,1,2.43.565,1.259,1.259,0,0,1-.09.765,1.31,1.31,0,0,1-.49.592,1.4,1.4,0,0,1-.75.224,1.35,1.35,0,0,1-.54-.105,1.274,1.274,0,0,1-.74-.776A1.257,1.257,0,0,1,1279.53,214.722Zm-11.8-2.325a2.358,2.358,0,0,0-1.65.7,2.289,2.289,0,0,0-.67,1.654,2.347,2.347,0,0,0,.71,1.635,2.381,2.381,0,0,0,1.68.658,2.736,2.736,0,0,0,1.86-.605l-.47-.716a2.148,2.148,0,0,1-1.3.465,1.245,1.245,0,0,1-1.35-1.088h3.34v-.372a2.127,2.127,0,0,0-2.14-2.326Zm0,.865a1.127,1.127,0,0,1,.43.075,1.245,1.245,0,0,1,.37.231,1.026,1.026,0,0,1,.24.353,1.214,1.214,0,0,1,.1.42h-2.35a1.116,1.116,0,0,1,.37-.78,1.18,1.18,0,0,1,.82-.3Zm24.49,1.47v-4.009h-.94v2.325a1.68,1.68,0,0,0-.62-.494,1.76,1.76,0,0,0-.79-.157,2.364,2.364,0,0,0-1.66.681,2.3,2.3,0,0,0,0,3.289,2.364,2.364,0,0,0,1.66.681,1.747,1.747,0,0,0,.79-.158,1.678,1.678,0,0,0,.62-.493v.539h.94Zm1.63,1.576a.429.429,0,0,1,.18.033.407.407,0,0,1,.15.093.652.652,0,0,1,.1.139.5.5,0,0,1,.03.172.494.494,0,0,1-.03.172.635.635,0,0,1-.1.14.407.407,0,0,1-.15.093.4.4,0,0,1-.18.037.5.5,0,0,1-.25-.074.522.522,0,0,1-.17-.2.494.494,0,0,1-.03-.172.5.5,0,0,1,.03-.172.644.644,0,0,1,.1-.139.405.405,0,0,1,.15-.093.458.458,0,0,1,.19-.033Zm0,.786a.333.333,0,0,0,.14-.028.361.361,0,0,0,.11-.074.337.337,0,0,0,.09-.233.333.333,0,0,0-.09-.232.347.347,0,0,0-.11-.075.333.333,0,0,0-.14-.027.337.337,0,0,0-.13.027.348.348,0,0,0-.11.075.344.344,0,0,0-.1.232.348.348,0,0,0,.1.233.329.329,0,0,0,.11.074.347.347,0,0,0,.15.028Zm.03-.553a.166.166,0,0,1,.12.037.111.111,0,0,1,.04.044.1.1,0,0,1,.01.054.073.073,0,0,1-.01.045c-.01.014-.01.027-.03.038a.136.136,0,0,1-.09.042l.13.154h-.11l-.12-.154h-.05v.154h-.08v-.41Zm-.1.079v.111h.1a.1.1,0,0,0,.06,0v-.083a.1.1,0,0,0-.06,0Zm-5.17-1.888a1.284,1.284,0,0,1,.27-.724,1.3,1.3,0,0,1,.62-.46,1.36,1.36,0,0,1,1.45.338,1.3,1.3,0,0,1,.35.687,1.26,1.26,0,0,1-.09.765,1.3,1.3,0,0,1-.49.592,1.393,1.393,0,0,1-1.29.12,1.273,1.273,0,0,1-.45-.312,1.342,1.342,0,0,1-.37-1.006Zm-33.01,0v-2.223h-.98v.539a1.68,1.68,0,0,0-.62-.494,1.76,1.76,0,0,0-.79-.157,2.363,2.363,0,0,0-1.66.681,2.3,2.3,0,0,0,0,3.289,2.363,2.363,0,0,0,1.66.681,1.747,1.747,0,0,0,.79-.158,1.678,1.678,0,0,0,.62-.493v.539h.98Zm-3.64,0a1.361,1.361,0,0,1,.89-1.184,1.382,1.382,0,0,1,.78-.046,1.332,1.332,0,0,1,.67.384,1.236,1.236,0,0,1,.35.687,1.335,1.335,0,0,1-.08.765,1.367,1.367,0,0,1-1.25.817,1.347,1.347,0,0,1-.54-.1,1.389,1.389,0,0,1-.46-.31,1.264,1.264,0,0,1-.29-.467,1.432,1.432,0,0,1-.08-.543Z" fill="#fff"/>
    <path id="Path_135" data-name="Path 135" d="M1274.9,178.627h-14.8v26.328h14.8Z" fill="#ff5f00"/>
    <path id="Path_136" data-name="Path 136" d="M1261.04,191.8a16.457,16.457,0,0,1,1.69-7.32,16.708,16.708,0,0,1,4.77-5.846,17.062,17.062,0,0,0-17.85-1.9,16.675,16.675,0,0,0,0,30.117,17.065,17.065,0,0,0,17.85-1.894,16.672,16.672,0,0,1-6.46-13.162Z" fill="#eb001b"/>
    <path id="Path_137" data-name="Path 137" d="M1294.88,191.794a16.567,16.567,0,0,1-2.58,8.883,16.812,16.812,0,0,1-6.95,6.176,17.062,17.062,0,0,1-17.85-1.9,16.826,16.826,0,0,0,4.76-5.846,16.514,16.514,0,0,0,0-14.636,16.808,16.808,0,0,0-4.76-5.846,17.065,17.065,0,0,1,17.85-1.9,16.812,16.812,0,0,1,6.95,6.176,16.57,16.57,0,0,1,2.58,8.883Z" fill="#f79e1b"/>
    <path id="Path_138" data-name="Path 138" d="M1293.26,202.165v-.54h.22v-.111h-.56v.111h.24v.54Zm1.09,0v-.651h-.17l-.2.465-.2-.465h-.15v.651h.13v-.489l.18.424h.13l.18-.424v.493Z" fill="#f79e1b"/>
  </g>
</svg>
