<svg xmlns="http://www.w3.org/2000/svg" width="137" height="72.001" viewBox="0 0 137 72.001">
  <g id="Group_77" data-name="Group 77" transform="translate(-1093 -54)">
    <path id="Path_73" data-name="Path 73" d="M1136.76,107.079l-1.62-4.345h-6.83l-1.59,4.345h-4.79l8.18-21.048h3.48l8.18,21.048ZM1132.39,94.7c-.07-.176-.16-.475-.3-.9s-.25-.836-.36-1.233c-.04.154-.14.471-.31.955s-.3.876-.41,1.184l-1.49,4.2h4.36Z" fill="#fff"/>
    <path id="Path_74" data-name="Path 74" d="M1156.13,107.078l-5.6-8.2h-1.79v8.2h-4.85V86.229h7.75a6.973,6.973,0,0,1,4.76,1.717,6.314,6.314,0,0,1,1.07,7.779,5.3,5.3,0,0,1-2.31,2.043l6.61,9.315h-5.64Zm-5.24-16.865h-2.15v4.675h2.15a2.926,2.926,0,0,0,1.84-.59,2.085,2.085,0,0,0,.76-1.765,2.056,2.056,0,0,0-.78-1.7A2.824,2.824,0,0,0,1150.89,90.213Z" fill="#fff"/>
    <path id="Path_75" data-name="Path 75" d="M1172.72,107.21h-4.14l-7.59-20.981h5.18l3.25,9.183c.24.656.48,1.36.71,2.126s.45,1.6.66,2.518c.22-.783.44-1.545.65-2.289s.48-1.523.78-2.351l3.26-9.183h4.79Z" fill="#fff"/>
    <path id="Path_76" data-name="Path 76" d="M1182.13,107.078V86.229h12.12V90.38h-7.07v4.151h5.77v4.217h-5.77v4.182h7.99v4.151h-13.04Z" fill="#fff"/>
    <path id="Path_77" data-name="Path 77" d="M1197.61,107.078V86.229h5.05v16.5H1211v4.345Z" fill="#fff"/>
    <path id="Path_78" data-name="Path 78" d="M1218.98,107.537a12.833,12.833,0,0,1-3.52-.454,8.678,8.678,0,0,1-2.77-1.3l-.46-4.847a10.347,10.347,0,0,0,6.52,2.351c1.93,0,2.9-.674,2.9-2.021a1.915,1.915,0,0,0-.66-1.518,20.016,20.016,0,0,0-4.42-1.893q-3.75-1.321-3.75-5.824a5.933,5.933,0,0,1,1.94-4.517,7.406,7.406,0,0,1,5.26-1.809,11.3,11.3,0,0,1,3,.343,7.448,7.448,0,0,1,2.09.9l-.39,4.248a8.286,8.286,0,0,0-1.99-.916,7.583,7.583,0,0,0-2.32-.392,3.241,3.241,0,0,0-1.95.506,1.56,1.56,0,0,0-.02,2.562,11.58,11.58,0,0,0,2.94,1.272,8.813,8.813,0,0,1,3.81,2.461,5.9,5.9,0,0,1,1.55,4.094,6.32,6.32,0,0,1-2.01,4.944A8.276,8.276,0,0,1,1218.98,107.537Z" fill="#fff"/>
    <path id="Path_79" data-name="Path 79" d="M1114.3,86.229l-4.49,8.756c-.35.674-.72,1.44-1.11,2.289s-.7,1.567-.94,2.157c-.15-.392-.42-1-.8-1.831s-.81-1.7-1.29-2.615l-4.49-8.695a12.514,12.514,0,0,1-4.36,2.443l-1.57,18.411h4.85l.65-7.722c.09-1.272.18-2.553.26-3.848a39.861,39.861,0,0,0,1.76,3.923l3.94,7.647h2.02l3.91-7.647c.65-1.285,1.26-2.6,1.82-3.953,0,.484.04,1.149.1,2s.1,1.479.1,1.875l.68,7.722h4.96l-1.86-20.915Z" fill="#fff"/>
    <path id="Path_80" data-name="Path 80" d="M1094.68,85.7,1093,83.971a7.322,7.322,0,0,0,4.55-2.606,9.089,9.089,0,0,0,1.53-5.635V56.475h2.56v19.52a10.139,10.139,0,0,1-1.99,6.595A8.591,8.591,0,0,1,1094.68,85.7Z" fill="#fff"/>
    <path id="Path_81" data-name="Path 81" d="M1151.21,80.947l-8.14-11.2-4.2,0v11.2h-2.56V56.475h6.96a7.5,7.5,0,0,1,5.04,1.8,6.055,6.055,0,0,1,2.11,4.834,6.173,6.173,0,0,1-1.34,3.971,6.7,6.7,0,0,1-3.44,2.28l8.56,11.583ZM1142.85,58.7h-3.98V67.52H1143a5.1,5.1,0,0,0,3.43-1.189,4.363,4.363,0,0,0-.04-6.423A5.322,5.322,0,0,0,1142.85,58.7Z" fill="#fff"/>
    <path id="Path_82" data-name="Path 82" d="M1162.84,80.938h-6.38V56.475h6.39a14.446,14.446,0,0,1,9.63,3.28,11.079,11.079,0,0,1,3.9,8.954,11.111,11.111,0,0,1-3.87,8.954A14.41,14.41,0,0,1,1162.84,80.938Zm-.38-22.241h-3.44V78.715h3.44a12.237,12.237,0,0,0,8.14-2.628,9.1,9.1,0,0,0,3.13-7.383,9.1,9.1,0,0,0-3.13-7.383A12.258,12.258,0,0,0,1162.46,58.7Z" fill="#fff"/>
    <path id="Path_83" data-name="Path 83" d="M1197.4,80.938l-2.82-6.863h-10.32l-2.7,6.876-2.55-.013,10.09-24.966h.81L1200,80.938Zm-6.58-16.487a35.949,35.949,0,0,1-1.3-3.76c-.22.665-.42,1.22-.59,1.669s-.44,1.145-.82,2.091l-2.91,7.515h8.49Z" fill="#fff"/>
    <path id="Path_84" data-name="Path 84" d="M1224.16,81.479,1212.17,67.66l-5.98-7.044c-.02.436-.03.907-.03,1.418v18.9h-2.53V56.474l1.82-.013,11.29,13.018q1.8,2.034,2.97,3.412t2.58,3.143c.03-.436.04-.894.04-1.378V56.474h2.53v25Z" fill="#fff"/>
    <path id="Path_85" data-name="Path 85" d="M1119.26,83.478a14.739,14.739,0,1,1,14.69-14.739A14.74,14.74,0,0,1,1119.26,83.478Zm0-27.391a12.652,12.652,0,1,0,12.61,12.652A12.655,12.655,0,0,0,1119.26,56.087Z" fill="#fff"/>
    <path id="Path_86" data-name="Path 86" d="M1114.47,63.941l3.46,6.868,3.32-3.685Z" fill="#fff"/>
    <path id="Path_87" data-name="Path 87" d="M1118.19,69.805l.49-.489-.57.572Z" fill="#fff"/>
    <path id="Path_88" data-name="Path 88" d="M1117.88,70.118l.23-.229Z" fill="#fff"/>
    <path id="Path_89" data-name="Path 89" d="M1121.32,66.666l-8.11-3.988,3.98,8.131,8.11,3.989Zm-.69.7-1.95,1.95.58-.572-1.38,1.378-2.63-5.4,5.39,2.641Z" fill="#fff"/>
    <path id="Path_90" data-name="Path 90" d="M1118.35,123.988l-2.15,2,.21-2.936-2.9-.445,2.42-1.664-1.46-2.549,2.8.863,1.08-2.738,1.08,2.738,2.8-.863-1.46,2.553,2.42,1.66-2.9.445.22,2.936Z" fill="#fff"/>
    <path id="Path_91" data-name="Path 91" d="M1139.7,123.992l-2.16,1.994.22-2.931-2.91-.445,2.43-1.664-1.47-2.549,2.81.863,1.08-2.739,1.07,2.739,2.8-.863-1.45,2.549,2.42,1.664-2.9.445.21,2.931Z" fill="#fff"/>
    <path id="Path_92" data-name="Path 92" d="M1161.04,124l-2.15,1.994.21-2.932-2.9-.444,2.42-1.664-1.46-2.549,2.8.858,1.08-2.734,1.08,2.734,2.8-.858-1.46,2.549,2.42,1.664-2.9.444.22,2.932Z" fill="#fff"/>
    <path id="Path_93" data-name="Path 93" d="M1182.38,124,1180.23,126l.21-2.937-2.9-.444,2.43-1.66-1.47-2.553,2.81.863,1.07-2.739,1.08,2.739,2.8-.859-1.45,2.549,2.41,1.66-2.89.444.21,2.937Z" fill="#fff"/>
    <path id="Path_94" data-name="Path 94" d="M1203.73,124l-2.15,2,.21-2.937-2.9-.444,2.42-1.664-1.46-2.549,2.8.862,1.07-2.738,1.08,2.738,2.81-.862-1.46,2.553,2.42,1.66-2.9.444.21,2.937Z" fill="#fff"/>
    <path id="Path_95" data-name="Path 95" d="M1228.61,90.107a1.333,1.333,0,0,1-.98-.387,1.311,1.311,0,0,1-.4-.991,1.3,1.3,0,0,1,.4-.99,1.347,1.347,0,0,1,.98-.383,1.372,1.372,0,0,1,.99.387,1.335,1.335,0,0,1,.4.991,1.311,1.311,0,0,1-.4.991A1.354,1.354,0,0,1,1228.61,90.107Zm0-2.527a1.1,1.1,0,0,0-.81.321,1.23,1.23,0,0,0,0,1.655,1.157,1.157,0,0,0,1.62-1.651A1.067,1.067,0,0,0,1228.61,87.58Zm.49,1.99-.47-.691h-.23v.691h-.26V87.9h.49a.542.542,0,0,1,.38.136.452.452,0,0,1,.15.348.478.478,0,0,1-.26.431l.42.608Zm-.5-1.439h-.2v.506h.2c.2,0,.3-.088.3-.255a.241.241,0,0,0-.08-.181A.3.3,0,0,0,1228.6,88.13Z" fill="#fff"/>
  </g>
</svg>
