<svg xmlns="http://www.w3.org/2000/svg" width="120" height="62.869" viewBox="0 0 120 62.869">
  <g id="Group_12" data-name="Group 12" transform="translate(-98.209 -89.98)">
    <g id="Group_7" data-name="Group 7" transform="translate(123.547 117.665)">
      <path id="Path_24" data-name="Path 24" d="M177.118,181.12l-1.424-3.8h-5.98l-1.4,3.8h-4.2l7.163-18.379h3.053L181.5,181.12Zm-3.833-10.806q-.086-.229-.257-.788t-.314-1.076c-.039.134-.128.411-.271.832s-.262.765-.357,1.032l-1.312,3.672H174.6Z" transform="translate(-164.124 -162.456)"/>
      <path id="Path_25" data-name="Path 25" d="M224.889,181.394l-4.908-7.163h-1.569v7.163h-4.252V163.187h6.792a6.109,6.109,0,0,1,4.167,1.5,5.5,5.5,0,0,1,.941,6.792,4.645,4.645,0,0,1-2.026,1.784l5.793,8.133Zm-4.594-14.726h-1.883v4.081h1.883a2.574,2.574,0,0,0,1.612-.513,1.819,1.819,0,0,0,.671-1.541,1.79,1.79,0,0,0-.685-1.484A2.5,2.5,0,0,0,220.295,166.668Z" transform="translate(-194.925 -162.73)"/>
      <path id="Path_26" data-name="Path 26" d="M263.407,181.508h-3.624l-6.649-18.321h4.538l2.853,8.019q.314.856.614,1.855t.585,2.2q.285-1.027.57-2t.685-2.055l2.854-8.019h4.2Z" transform="translate(-218.918 -162.73)"/>
      <path id="Path_27" data-name="Path 27" d="M301.313,181.394V163.187h10.615v3.624h-6.193v3.624h5.051v3.681h-5.051v3.653h6.992v3.625Z" transform="translate(-248.576 -162.73)"/>
      <path id="Path_28" data-name="Path 28" d="M336.575,181.394V163.187H341V177.6H348.3v3.8Z" transform="translate(-270.283 -162.73)"/>
      <path id="Path_29" data-name="Path 29" d="M375.812,181.062a11.278,11.278,0,0,1-3.082-.4,7.75,7.75,0,0,1-2.426-1.136l-.4-4.231a9.07,9.07,0,0,0,5.708,2.055q2.539,0,2.539-1.766a1.653,1.653,0,0,0-.585-1.325,17.39,17.39,0,0,0-3.867-1.652q-3.282-1.153-3.281-5.085a5.168,5.168,0,0,1,1.7-3.945A6.494,6.494,0,0,1,376.725,162a9.987,9.987,0,0,1,2.626.3,6.509,6.509,0,0,1,1.826.785l-.342,3.71a7.09,7.09,0,0,0-1.741-.8,6.565,6.565,0,0,0-2.027-.343,2.855,2.855,0,0,0-1.712.441,1.345,1.345,0,0,0-.6,1.125,1.364,1.364,0,0,0,.585,1.111,9.954,9.954,0,0,0,2.569,1.111,7.666,7.666,0,0,1,3.339,2.15,5.141,5.141,0,0,1,1.355,3.574,5.517,5.517,0,0,1-1.755,4.316A7.275,7.275,0,0,1,375.812,181.062Z" transform="translate(-290.801 -161.999)"/>
    </g>
    <path id="Path_30" data-name="Path 30" d="M120.019,163.187l-3.938,7.648q-.457.885-.971,2t-.828,1.884q-.2-.514-.7-1.6t-1.127-2.283l-3.939-7.594a10.954,10.954,0,0,1-3.812,2.134l-1.382,16.075h4.252l.57-6.744q.114-1.664.229-3.358a34.575,34.575,0,0,0,1.541,3.424l3.453,6.678h1.77l3.424-6.678q.856-1.684,1.6-3.453,0,.632.086,1.751t.085,1.636l.6,6.744h4.338l-1.627-18.264Z" transform="translate(-3.149 -45.066)"/>
    <g id="Group_8" data-name="Group 8" transform="translate(98.209 91.705)">
      <path id="Path_31" data-name="Path 31" d="M99.682,121.117l-1.473-1.507a6.409,6.409,0,0,0,3.985-2.277,7.923,7.923,0,0,0,1.339-4.922V95.6h2.244v17.044a8.862,8.862,0,0,1-1.742,5.759A7.551,7.551,0,0,1,99.682,121.117Z" transform="translate(-98.209 -95.165)"/>
      <path id="Path_32" data-name="Path 32" d="M209.951,116.971l-7.128-9.779-3.678,0v9.778H196.9V95.6H203a6.581,6.581,0,0,1,4.42,1.573,5.272,5.272,0,0,1,1.842,4.219,5.36,5.36,0,0,1-1.173,3.466,5.873,5.873,0,0,1-3.013,1.992l7.5,10.112Zm-7.324-19.428h-3.482v7.7h3.616a4.468,4.468,0,0,0,3-1.039,3.793,3.793,0,0,0-.033-5.608A4.653,4.653,0,0,0,202.627,97.543Z" transform="translate(-158.963 -95.165)"/>
      <path id="Path_33" data-name="Path 33" d="M248.4,116.964h-5.592V95.6H248.4a12.69,12.69,0,0,1,8.438,2.863,10.694,10.694,0,0,1,.033,15.638A12.662,12.662,0,0,1,248.4,116.964Zm-.336-19.421h-3.013v17.479h3.013a10.749,10.749,0,0,0,7.133-2.294,8.938,8.938,0,0,0,0-12.891A10.756,10.756,0,0,0,248.062,97.543Z" transform="translate(-187.222 -95.165)"/>
      <path id="Path_34" data-name="Path 34" d="M310.306,116.267l-2.467-5.994H298.8l-2.363,6-2.237-.011,8.839-21.8h.7l8.84,21.8Zm-5.765-14.4a30.935,30.935,0,0,1-1.134-3.284q-.3.87-.518,1.457t-.719,1.825l-2.553,6.562h7.438Z" transform="translate(-218.859 -94.468)"/>
      <path id="Path_35" data-name="Path 35" d="M368.276,117.415l-10.5-12.065-5.237-6.15c-.022.38-.032.793-.032,1.239v16.507H350.3V95.583l1.586-.012,9.894,11.367q1.575,1.774,2.6,2.978t2.263,2.743q.033-.569.034-1.2V95.583h2.21v21.832Z" transform="translate(-253.391 -95.147)"/>
    </g>
    <path id="Path_36" data-name="Path 36" d="M137.428,115.72a12.87,12.87,0,1,1,12.87-12.87A12.884,12.884,0,0,1,137.428,115.72Zm0-23.916a11.046,11.046,0,1,0,11.046,11.046A11.059,11.059,0,0,0,137.428,91.8Z" transform="translate(-16.22)"/>
    <g id="Group_10" data-name="Group 10" transform="translate(115.916 97.559)">
      <path id="Path_37" data-name="Path 37" d="M147.136,112.558l3.029,6,2.9-3.221Z" transform="translate(-146.035 -111.458)" fill="#c7b299"/>
      <g id="Group_9" data-name="Group 9" transform="translate(0 0)">
        <path id="Path_38" data-name="Path 38" d="M155.494,125.2l.429-.429-.5.5Z" transform="translate(-151.135 -118.975)"/>
        <path id="Path_39" data-name="Path 39" d="M154.9,126.274l.2-.2-.2.2Z" transform="translate(-150.816 -119.778)"/>
        <path id="Path_40" data-name="Path 40" d="M151.372,113.178l-7.1-3.482,3.483,7.1,7.1,3.482Zm-.608.608h0l-1.7,1.7.5-.5-1.205,1.2-2.306-4.719,4.717,2.307Z" transform="translate(-144.272 -109.696)"/>
      </g>
    </g>
    <path id="Path_41" data-name="Path 41" d="M149.186,238.517l-1.887,1.743.186-2.562-2.54-.388,2.119-1.452-1.28-2.226,2.457.752.942-2.389.945,2.389,2.457-.751-1.28,2.227,2.12,1.451-2.539.387.187,2.562Z" transform="translate(-28.77 -87.422)" fill="#c7b299"/>
    <path id="Path_42" data-name="Path 42" d="M197.821,238.524l-1.886,1.743.186-2.562-2.541-.388,2.12-1.451-1.282-2.228,2.458.752.942-2.389.944,2.389,2.456-.752-1.279,2.226,2.12,1.452-2.539.388.188,2.562Z" transform="translate(-58.71 -87.427)" fill="#c7b299"/>
    <path id="Path_43" data-name="Path 43" d="M246.458,238.531l-1.887,1.743.186-2.563-2.54-.388,2.12-1.452-1.282-2.226,2.458.751.941-2.389.945,2.389,2.456-.752-1.28,2.227,2.121,1.452-2.539.388.188,2.562Z" transform="translate(-88.651 -87.431)" fill="#c7b299"/>
    <path id="Path_44" data-name="Path 44" d="M295.092,238.539l-1.886,1.742.185-2.563-2.541-.388,2.12-1.451-1.282-2.227,2.459.752.941-2.389.945,2.389,2.455-.751-1.279,2.226,2.121,1.452-2.539.388.187,2.563Z" transform="translate(-118.589 -87.435)" fill="#c7b299"/>
    <path id="Path_45" data-name="Path 45" d="M343.728,238.545l-1.886,1.743.185-2.563-2.54-.388,2.119-1.452-1.281-2.226,2.458.752.942-2.39.944,2.39,2.456-.751-1.279,2.227,2.12,1.451-2.539.387.188,2.563Z" transform="translate(-148.529 -87.44)" fill="#c7b299"/>
    <g id="Group_11" data-name="Group 11" transform="translate(215.783 119.104)">
      <path id="Path_46" data-name="Path 46" d="M405.278,168.148a1.187,1.187,0,0,1-.867-.34,1.257,1.257,0,0,1,0-1.733,1.284,1.284,0,0,1,1.73,0,1.148,1.148,0,0,1,.35.863,1.161,1.161,0,0,1-.347.866A1.185,1.185,0,0,1,405.278,168.148Zm0-2.208a1,1,0,1,0,.709,1.723.962.962,0,0,0,.287-.722.977.977,0,0,0-.283-.719A.966.966,0,0,0,405.278,165.94Zm.43,1.739-.417-.6h-.2v.6h-.231v-1.463h.436a.474.474,0,0,1,.33.118.393.393,0,0,1,.132.3.427.427,0,0,1-.063.224.413.413,0,0,1-.165.154l.375.531Zm-.437-1.258h-.179v.444h.179c.172,0,.258-.075.258-.225a.2.2,0,0,0-.067-.157A.275.275,0,0,0,405.271,166.422Z" transform="translate(-404.065 -165.742)"/>
    </g>
  </g>
</svg>
