<svg id="Component_3_1" data-name="Component 3 – 1" xmlns="http://www.w3.org/2000/svg" width="195" height="45" viewBox="0 0 195 45">
  <rect id="Rectangle_105" data-name="Rectangle 105" width="195" height="45" rx="4" fill="#e81a1e"/>
  <path id="Path_379" data-name="Path 379" d="M648.592,583.1a4.271,4.271,0,0,0-1.932-.42c-1.824,0-2.988,1.092-2.988,2.544,0,1.248.924,2.076,2.292,2.628,1.092.456,1.56.936,1.56,1.716,0,.828-.612,1.392-1.7,1.392a4.011,4.011,0,0,1-1.992-.54l-.312,1.164a4.466,4.466,0,0,0,2.22.552c2.064,0,3.2-1.152,3.2-2.688,0-1.26-.708-2.064-2.184-2.712-1.164-.5-1.68-.888-1.68-1.668,0-.588.456-1.224,1.548-1.224a3.392,3.392,0,0,1,1.632.408Zm3.277.468a.778.778,0,0,0-.8-.816.81.81,0,0,0-.012,1.62A.778.778,0,0,0,651.869,583.564Zm-.12,1.812h-1.392V592h1.392Zm6.068.012-.06.888h-.024a1.918,1.918,0,0,0-1.812-1.032c-1.44,0-2.8,1.248-2.8,3.492,0,1.848,1.068,3.228,2.628,3.228a2.075,2.075,0,0,0,1.836-.972h.024v.636c0,1.5-.768,2.1-1.848,2.1a3.609,3.609,0,0,1-1.788-.468l-.312,1.08a4.3,4.3,0,0,0,2.088.48c3.132,0,3.24-2.436,3.24-3.756V587.3c0-.888.024-1.44.06-1.908Zm-.216,3.852a1.491,1.491,0,0,1-1.44,1.656c-1.032,0-1.62-.924-1.62-2.22,0-1.416.672-2.328,1.632-2.328a1.482,1.482,0,0,1,1.428,1.6Zm8.622-1.284c0-2.04-1.152-2.712-2.184-2.712a2.267,2.267,0,0,0-2,1.128H662l-.072-.984h-1.212c.024.564.048,1.128.048,1.86V592h1.392v-3.984a1.489,1.489,0,0,1,1.416-1.62c.948,0,1.26.792,1.26,1.728V592h1.392Zm8.275-5.136h-1.392v5.556c0,1.824-.72,2.616-1.872,2.616-1.056,0-1.812-.78-1.812-2.616V582.82H668.03v5.472c0,2.736,1.272,3.84,3.156,3.84,1.956,0,3.312-1.152,3.312-3.876Zm3.076,3.576-.072-1.008h-1.224c.024.588.048,1.272.048,2.136v7.152h1.392V591.22h.024a2.016,2.016,0,0,0,1.764.912c1.392,0,2.8-1.092,2.8-3.516,0-2.052-1.116-3.372-2.6-3.372a2.344,2.344,0,0,0-2.1,1.152Zm.144,1.716a1.666,1.666,0,0,1,1.536-1.752c1.068,0,1.632,1.044,1.632,2.3,0,1.368-.588,2.364-1.668,2.364a1.536,1.536,0,0,1-1.5-1.692Zm15.791-2.724-.768,3.12c-.18.768-.336,1.476-.444,2.16h-.036c-.132-.7-.312-1.4-.516-2.172l-.864-3.108h-1.14l-.912,3.18c-.192.684-.4,1.416-.528,2.1h-.024c-.12-.7-.276-1.4-.432-2.112l-.732-3.168h-1.44l1.9,6.612h1.26l.9-2.916a15.749,15.749,0,0,0,.516-2.124h.036a20.221,20.221,0,0,0,.492,2.112l.852,2.928h1.26l2-6.612Zm3.957-1.824a.778.778,0,0,0-.8-.816.81.81,0,1,0-.012,1.62A.778.778,0,0,0,697.466,583.564Zm-.12,1.812h-1.392V592h1.392Zm2.06.012h-.936v1.044h.936v3.42a2.5,2.5,0,0,0,.492,1.776,1.716,1.716,0,0,0,1.308.5,3.069,3.069,0,0,0,1.08-.156l-.048-1.068a2.026,2.026,0,0,1-.612.084c-.588,0-.84-.4-.84-1.212v-3.348h1.572v-1.044h-1.572v-1.632l-1.38.432ZM709.02,588c0-2.088-1.152-2.76-2.148-2.76a2.253,2.253,0,0,0-1.9,1.044h-.024v-3.912H703.56V592h1.392v-4.044a1.47,1.47,0,0,1,1.416-1.56c.936,0,1.26.792,1.26,1.74V592h1.392Zm11.1-.948H717.2v1.116h1.584v2.592a2.922,2.922,0,0,1-1.224.192c-1.8,0-3.06-1.224-3.06-3.54s1.356-3.516,3.24-3.516a4.3,4.3,0,0,1,1.824.348l.312-1.14a5.144,5.144,0,0,0-2.136-.384,4.441,4.441,0,0,0-4.7,4.752c0,1.464.5,4.62,4.476,4.62a7.673,7.673,0,0,0,2.616-.468Zm4.3-1.812c-1.752,0-3.12,1.26-3.12,3.492,0,2.136,1.308,3.4,3.024,3.4,1.488,0,3.1-1.02,3.1-3.492C727.424,586.612,726.236,585.244,724.424,585.244ZM726,588.676c0,1.32-.624,2.412-1.632,2.412s-1.632-1.092-1.632-2.388c0-1.14.456-2.412,1.644-2.412C725.54,586.288,726,587.584,726,588.676Zm5.506-3.432c-1.752,0-3.12,1.26-3.12,3.492,0,2.136,1.308,3.4,3.024,3.4,1.488,0,3.1-1.02,3.1-3.492C734.5,586.612,733.314,585.244,731.5,585.244Zm1.572,3.432c0,1.32-.624,2.412-1.632,2.412S729.81,590,729.81,588.7c0-1.14.456-2.412,1.644-2.412C732.618,586.288,733.074,587.584,733.074,588.676Zm7.09-3.288-.06.888h-.024a1.919,1.919,0,0,0-1.812-1.032c-1.44,0-2.8,1.248-2.8,3.492,0,1.848,1.068,3.228,2.628,3.228a2.075,2.075,0,0,0,1.836-.972h.024v.636c0,1.5-.768,2.1-1.848,2.1a3.609,3.609,0,0,1-1.788-.468l-.312,1.08a4.3,4.3,0,0,0,2.088.48c3.132,0,3.24-2.436,3.24-3.756V587.3c0-.888.024-1.44.06-1.908Zm-.216,3.852a1.491,1.491,0,0,1-1.44,1.656c-1.032,0-1.62-.924-1.62-2.22,0-1.416.672-2.328,1.632-2.328a1.482,1.482,0,0,1,1.428,1.6Zm4.555-6.864h-1.392V592H744.5Zm6.38,8.376a4.125,4.125,0,0,1-1.668.312,1.879,1.879,0,0,1-2-2.052h4.2a4.173,4.173,0,0,0,.036-.588c0-1.632-.744-3.18-2.6-3.18s-2.976,1.572-2.976,3.54a3.013,3.013,0,0,0,3.144,3.348,5.17,5.17,0,0,0,2.1-.4Zm-3.66-2.736c.072-.768.5-1.776,1.524-1.776,1.068,0,1.392.984,1.38,1.776Z" transform="translate(-586 -565)" fill="#fff"/>
  <path id="Path_380" data-name="Path 380" d="M622.531,586.3h-.906v-.047H611.5v4.5h6.358a6.755,6.755,0,1,1-1.88-7.291l3.182-3.182a11.239,11.239,0,1,0,3.59,8.223A11.335,11.335,0,0,0,622.531,586.3Z" transform="translate(-586 -565)" fill="#fff"/>
  <path id="Path_381" data-name="Path 381" d="M601.547,583.264l3.7,2.71a6.736,6.736,0,0,1,10.734-2.515l3.182-3.182a11.228,11.228,0,0,0-17.613,2.987Z" transform="translate(-586 -565)" fill="#fff"/>
  <path id="Path_382" data-name="Path 382" d="M611.5,599.75a11.2,11.2,0,0,0,7.543-2.921l-3.482-2.946a6.733,6.733,0,0,1-10.408-3.1l-3.668,2.827A11.242,11.242,0,0,0,611.5,599.75Z" transform="translate(-586 -565)" fill="#fff"/>
  <path id="Path_383" data-name="Path 383" d="M622.531,586.3h-.906v-.047H611.5v4.5h6.358a6.776,6.776,0,0,1-2.3,3.134h0l3.482,2.946a10.885,10.885,0,0,0,3.707-8.329A11.335,11.335,0,0,0,622.531,586.3Z" transform="translate(-586 -565)" fill="#fff"/>
  <path id="Path_384" data-name="Path 384" d="M633,573v28.5" transform="translate(-586 -565)" fill="none" stroke="#ff6063" stroke-width="0.6"/>
</svg>
