<svg id="Component_2_1" data-name="Component 2 – 1" xmlns="http://www.w3.org/2000/svg" width="195" height="45" viewBox="0 0 195 45">
  <rect id="Rectangle_104" data-name="Rectangle 104" width="195" height="45" rx="4" fill="#0069c2"/>
  <path id="Path_376" data-name="Path 376" d="M366.592,584.1a4.271,4.271,0,0,0-1.932-.42c-1.824,0-2.988,1.092-2.988,2.544,0,1.248.924,2.076,2.292,2.628,1.092.456,1.56.936,1.56,1.716,0,.828-.612,1.392-1.7,1.392a4.011,4.011,0,0,1-1.992-.54l-.312,1.164a4.466,4.466,0,0,0,2.22.552c2.064,0,3.2-1.152,3.2-2.688,0-1.26-.708-2.064-2.184-2.712-1.164-.5-1.68-.888-1.68-1.668,0-.588.456-1.224,1.548-1.224a3.393,3.393,0,0,1,1.632.408Zm3.277.468a.778.778,0,0,0-.8-.816.81.81,0,1,0-.012,1.62A.778.778,0,0,0,369.869,584.564Zm-.12,1.812h-1.392V593h1.392Zm6.068.012-.06.888h-.024a1.919,1.919,0,0,0-1.812-1.032c-1.44,0-2.8,1.248-2.8,3.492,0,1.848,1.068,3.228,2.628,3.228a2.075,2.075,0,0,0,1.836-.972h.024v.636c0,1.5-.768,2.1-1.848,2.1a3.609,3.609,0,0,1-1.788-.468l-.312,1.08a4.3,4.3,0,0,0,2.088.48c3.132,0,3.24-2.436,3.24-3.756V588.3c0-.888.024-1.44.06-1.908Zm-.216,3.852a1.491,1.491,0,0,1-1.44,1.656c-1.032,0-1.62-.924-1.62-2.22,0-1.416.672-2.328,1.632-2.328a1.482,1.482,0,0,1,1.428,1.6Zm8.622-1.284c0-2.04-1.152-2.712-2.184-2.712a2.267,2.267,0,0,0-2,1.128H380l-.072-.984h-1.212c.024.564.048,1.128.048,1.86V593h1.392v-3.984a1.489,1.489,0,0,1,1.416-1.62c.948,0,1.26.792,1.26,1.728V593h1.392Zm8.275-5.136h-1.392v5.556c0,1.824-.72,2.616-1.872,2.616-1.056,0-1.812-.78-1.812-2.616V583.82H386.03v5.472c0,2.736,1.272,3.84,3.156,3.84,1.956,0,3.312-1.152,3.312-3.876Zm3.076,3.576-.072-1.008h-1.224c.024.588.048,1.272.048,2.136v7.152h1.392V592.22h.024a2.016,2.016,0,0,0,1.764.912c1.392,0,2.8-1.092,2.8-3.516,0-2.052-1.116-3.372-2.6-3.372a2.344,2.344,0,0,0-2.1,1.152Zm.144,1.716a1.666,1.666,0,0,1,1.536-1.752c1.068,0,1.632,1.044,1.632,2.3,0,1.368-.588,2.364-1.668,2.364a1.536,1.536,0,0,1-1.5-1.692Zm15.791-2.724-.768,3.12c-.18.768-.336,1.476-.444,2.16h-.036c-.132-.7-.312-1.4-.516-2.172l-.864-3.108h-1.14l-.912,3.18c-.192.684-.4,1.416-.528,2.1h-.024c-.12-.7-.276-1.4-.432-2.112l-.732-3.168h-1.44l1.9,6.612h1.26l.9-2.916a15.74,15.74,0,0,0,.516-2.124h.036a20.229,20.229,0,0,0,.492,2.112l.852,2.928h1.26l2-6.612Zm3.957-1.824a.778.778,0,0,0-.8-.816.81.81,0,0,0-.012,1.62A.778.778,0,0,0,415.466,584.564Zm-.12,1.812h-1.392V593h1.392Zm2.06.012h-.936v1.044h.936v3.42a2.5,2.5,0,0,0,.492,1.776,1.716,1.716,0,0,0,1.308.5,3.069,3.069,0,0,0,1.08-.156l-.048-1.068a2.026,2.026,0,0,1-.612.084c-.588,0-.84-.4-.84-1.212v-3.348h1.572v-1.044h-1.572v-1.632l-1.38.432ZM427.02,589c0-2.088-1.152-2.76-2.148-2.76a2.253,2.253,0,0,0-1.9,1.044h-.024v-3.912H421.56V593h1.392v-4.044a1.47,1.47,0,0,1,1.416-1.56c.936,0,1.26.792,1.26,1.74V593h1.392Zm5.9,4v-4.032h3.144v-1.152h-3.144v-2.832H436.3V583.82h-4.776V593Zm9.507-4.068c0-1.4-.54-2.688-2.484-2.688a4.125,4.125,0,0,0-2.136.552l.288.924a3.045,3.045,0,0,1,1.608-.456c1.332,0,1.332.984,1.332,1.476-2.268,0-3.7.816-3.7,2.46a1.867,1.867,0,0,0,1.944,1.932,2.238,2.238,0,0,0,1.848-.9h.036l.1.768h1.26a8.981,8.981,0,0,1-.1-1.572Zm-1.356,1.836a1.35,1.35,0,0,1-1.38,1.344.944.944,0,0,1-.972-1.056c0-1.176,1.26-1.38,2.352-1.38Zm7.371.984a3.024,3.024,0,0,1-1.248.264,2.05,2.05,0,0,1-2-2.316,2.092,2.092,0,0,1,2.016-2.352,2.587,2.587,0,0,1,1.188.264l.276-1.068a3.548,3.548,0,0,0-1.476-.3,3.294,3.294,0,0,0-3.42,3.516,3.06,3.06,0,0,0,3.156,3.372,4.284,4.284,0,0,0,1.7-.336Zm6.043,0a4.125,4.125,0,0,1-1.668.312,1.879,1.879,0,0,1-2-2.052h4.2a4.168,4.168,0,0,0,.036-.588c0-1.632-.744-3.18-2.6-3.18s-2.976,1.572-2.976,3.54a3.013,3.013,0,0,0,3.144,3.348,5.17,5.17,0,0,0,2.1-.4Zm-3.66-2.736c.072-.768.5-1.776,1.524-1.776,1.068,0,1.392.984,1.38,1.776Zm6.96-1.7v-3.936h-1.392v7.86c0,.6-.024,1.32-.048,1.764h1.188l.072-1h.036a2.1,2.1,0,0,0,1.956,1.128c1.368,0,2.772-1.128,2.772-3.54,0-2.016-1.044-3.348-2.556-3.348a2.2,2.2,0,0,0-2,1.068Zm0,1.776a1.662,1.662,0,0,1,1.524-1.728c1.1,0,1.644,1.044,1.644,2.292,0,1.416-.588,2.364-1.656,2.364a1.563,1.563,0,0,1-1.512-1.632Zm8.656-2.844c-1.752,0-3.12,1.26-3.12,3.492,0,2.136,1.308,3.4,3.024,3.4,1.488,0,3.1-1.02,3.1-3.492C469.436,587.612,468.248,586.244,466.436,586.244Zm1.572,3.432c0,1.32-.624,2.412-1.632,2.412s-1.632-1.092-1.632-2.388c0-1.14.456-2.412,1.644-2.412C467.552,587.288,468.008,588.584,468.008,589.676Zm5.506-3.432c-1.752,0-3.12,1.26-3.12,3.492,0,2.136,1.308,3.4,3.024,3.4,1.488,0,3.1-1.02,3.1-3.492C476.514,587.612,475.326,586.244,473.514,586.244Zm1.572,3.432c0,1.32-.624,2.412-1.632,2.412s-1.632-1.092-1.632-2.388c0-1.14.456-2.412,1.644-2.412C474.63,587.288,475.086,588.584,475.086,589.676Zm5.686-.564,2.328-2.724h-1.644l-1.644,2.208c-.168.228-.348.516-.5.768h-.024v-5.988h-1.392V593h1.392v-2.376l.54-.66,1.9,3.036h1.68Z" transform="translate(-305 -565)" fill="#fff"/>
  <path id="Path_377" data-name="Path 377" d="M322.956,577A3.948,3.948,0,0,0,319,580.956V594.71a3.948,3.948,0,0,0,3.956,3.957h7.455V590.2h-2.24v-3.049h2.24v-2.606c0-2.047,1.323-3.926,4.372-3.926a18.576,18.576,0,0,1,2.147.118l-.072,2.848s-.931-.009-1.947-.009c-1.1,0-1.275.507-1.275,1.348v2.227h3.309L336.8,590.2h-3.165v8.471h3.074a3.948,3.948,0,0,0,3.957-3.956V580.956A3.948,3.948,0,0,0,336.71,577Z" transform="translate(-305 -565)" fill="#fff"/>
  <path id="Path_378" data-name="Path 378" d="M351,573v28.5" transform="translate(-305 -565)" fill="none" stroke="#1393ff" stroke-width="0.6"/>
</svg>
