<svg id="Component_6_1" data-name="Component 6 – 1" xmlns="http://www.w3.org/2000/svg" width="17.7" height="17.9" viewBox="0 0 17.7 17.9">
  <path id="Path_512" data-name="Path 512" d="M407.6,373.7a16.949,16.949,0,0,0-2.3-.1c-4.2,0-7.6,1.3-7.6,2.9v1.8h9.4s.7.9,1,1.2H396.6v-2.9c0-2.3,3.9-4.1,8.8-4.1a16.858,16.858,0,0,1,3.3.3,7.365,7.365,0,0,0-.6.5A2.735,2.735,0,0,0,407.6,373.7Zm-2.2-11.8a4,4,0,0,1,2.9,1.2,4.253,4.253,0,0,1,1.2,2.9,4,4,0,0,1-1.2,2.9,4.357,4.357,0,0,1-2.9,1.1,4,4,0,0,1-2.9-1.2,3.784,3.784,0,0,1-1.2-2.8,4.1,4.1,0,0,1,4.1-4.1Zm0,1.1a3.333,3.333,0,0,0-2.1.9,2.646,2.646,0,0,0-.8,2.1,2.792,2.792,0,0,0,.8,2,3.118,3.118,0,0,0,2.1.9,3.076,3.076,0,0,0,3-3,2.61,2.61,0,0,0-1-2A3.081,3.081,0,0,0,405.4,363Z" transform="translate(-396.6 -361.9)" fill="#50473d"/>
  <path id="Path_513" data-name="Path 513" d="M413.3,374a3.394,3.394,0,1,0-2.4,5.8,3.372,3.372,0,0,0,3.4-3.4A3.1,3.1,0,0,0,413.3,374Zm-.1,2.4a1.99,1.99,0,0,1-.7,1.6,2.36,2.36,0,0,1-1.6.7,2.3,2.3,0,1,1,2.3-2.3Z" transform="translate(-396.6 -361.9)" fill="#50473d"/>
  <path id="Path_514" data-name="Path 514" d="M412,376.1h-.8v-1.3a.52.52,0,0,0-.2-.4.749.749,0,0,0-.5-.1.664.664,0,0,0-.4.5v1.7a.576.576,0,0,0,.6.6h1.4a.536.536,0,0,0,.5-.5A.56.56,0,0,0,412,376.1Z" transform="translate(-396.6 -361.9)" fill="#50473d"/>
</svg>
