<svg xmlns="http://www.w3.org/2000/svg" width="19.833" height="22.167" viewBox="0 0 19.833 22.167">
  <path id="Path_402" data-name="Path 402" d="M290.167,467.333h1.166A1.168,1.168,0,0,1,292.5,468.5v1.166h5.833V468.5a1.168,1.168,0,0,1,1.167-1.167h1.167a1.166,1.166,0,0,1,1.166,1.167v1.166a3.5,3.5,0,0,1,3.5,3.5V486a3.5,3.5,0,0,1-3.5,3.5H289a3.5,3.5,0,0,1-3.5-3.5V473.166a3.5,3.5,0,0,1,3.5-3.5V468.5a1.168,1.168,0,0,1,1.167-1.167Zm9.333,2.333h1.167V468.5H299.5Zm-8.167,0V468.5h-1.166v1.166ZM289,470.833a2.332,2.332,0,0,0-2.333,2.333v1.167h17.5v-1.167a2.334,2.334,0,0,0-2.334-2.333ZM286.667,486A2.332,2.332,0,0,0,289,488.333h12.833A2.334,2.334,0,0,0,304.167,486V475.5h-17.5ZM296,480.166h5.833V486H296Zm1.167,1.167v3.5h3.5v-3.5Z" transform="translate(-285.5 -467.333)" fill="#c7b299"/>
</svg>
