<svg xmlns="http://www.w3.org/2000/svg" width="20.583" height="16.25" viewBox="0 0 20.583 16.25">
  <path id="Path_366" data-name="Path 366" d="M289.417,212.417H303.5a3.25,3.25,0,0,1,3.25,3.25v9.75a3.25,3.25,0,0,1-3.25,3.25H289.417a3.249,3.249,0,0,1-3.25-3.25v-9.75a3.249,3.249,0,0,1,3.25-3.25Zm0,1.083a2.158,2.158,0,0,0-1.39.505l8.431,5.475,8.432-5.475a2.162,2.162,0,0,0-1.39-.505Zm7.041,7.272-9.063-5.885a2.167,2.167,0,0,0-.145.78v9.75a2.166,2.166,0,0,0,2.167,2.167H303.5a2.168,2.168,0,0,0,2.167-2.167v-9.75a2.129,2.129,0,0,0-.146-.78l-9.063,5.884Z" transform="translate(-286.167 -212.417)" fill="#50473d"/>
</svg>
