<svg xmlns="http://www.w3.org/2000/svg" width="132" height="134" viewBox="0 0 132 134">
  <g id="Component_8_1" data-name="Component 8 – 1" transform="translate(1 1)">
    <g id="Component_7_1" data-name="Component 7 – 1">
      <rect id="Rectangle_128" data-name="Rectangle 128" width="118" height="118" rx="17" fill="#fff" stroke="#c7b299" stroke-width="2"/>
      <path id="Path_519" data-name="Path 519" d="M263.5,279.4c16.292,0,29.5,6.164,29.5,13.767V303H234v-9.833C234,285.564,247.208,279.4,263.5,279.4Zm0-35.4a13.766,13.766,0,1,1-9.735,4.032A13.767,13.767,0,0,1,263.5,244Z" transform="translate(-204 -217)" fill="#eadccb" opacity="0.5"/>
      <g id="Group_75" data-name="Group 75" transform="translate(-204 -217)">
        <rect id="Rectangle_129" data-name="Rectangle 129" width="46" height="45" rx="13" transform="translate(289 305)" fill="#c7b299"/>
      </g>
    </g>
    <path id="Path_520" data-name="Path 520" d="M306.036,318.768a2.41,2.41,0,1,0,2.41,2.411A2.412,2.412,0,0,0,306.036,318.768Zm5.893-3.482h-1.875l-.427-1.139a1.675,1.675,0,0,0-1.448-1h-4.286a1.674,1.674,0,0,0-1.448,1l-.427,1.139h-1.875A2.147,2.147,0,0,0,298,317.429v7.5a2.147,2.147,0,0,0,2.143,2.142h11.786a2.146,2.146,0,0,0,2.142-2.142v-7.5A2.146,2.146,0,0,0,311.929,315.286Zm-5.893,9.643a3.75,3.75,0,1,1,3.75-3.75A3.755,3.755,0,0,1,306.036,324.929Z" transform="translate(-204 -217)" fill="#fff"/>
  </g>
</svg>
