<svg xmlns="http://www.w3.org/2000/svg" width="16.25" height="21.667" viewBox="0 0 16.25 21.667">
  <path id="Path_363" data-name="Path 363" d="M300.333,287.667a3.249,3.249,0,0,1,3.25,3.25v8.667a3.249,3.249,0,0,1-3.25,3.25h-9.75a3.25,3.25,0,0,1-3.25-3.25v-8.667a3.25,3.25,0,0,1,3.25-3.25v-1.625a4.875,4.875,0,1,1,9.75,0Zm-9.75,1.083a2.166,2.166,0,0,0-2.166,2.167v8.667a2.165,2.165,0,0,0,2.166,2.166h9.75a2.165,2.165,0,0,0,2.167-2.166v-8.667a2.166,2.166,0,0,0-2.167-2.167Zm8.667-1.083v-1.625a3.792,3.792,0,1,0-7.583,0v1.625Zm-3.792,6.5a1.623,1.623,0,1,0,1.15.476A1.626,1.626,0,0,0,295.458,294.167Zm0-1.083a2.707,2.707,0,1,1-1.915.793A2.709,2.709,0,0,1,295.458,293.084Z" transform="translate(-287.333 -281.167)" fill="rgba(80,71,61,0.89)"/>
</svg>
