<svg xmlns="http://www.w3.org/2000/svg" width="17.5" height="17.5" viewBox="0 0 17.5 17.5">
  <path id="Path_416" data-name="Path 416" d="M296.417,206.333c4.832,0,8.75,1.828,8.75,4.083v2.917h-17.5v-2.917C287.667,208.161,291.584,206.333,296.417,206.333ZM304,210.416c0-1.61-3.395-2.916-7.583-2.916s-7.584,1.306-7.584,2.916v1.75H304Zm-7.583-14.583a4.083,4.083,0,1,1-2.888,1.2A4.084,4.084,0,0,1,296.417,195.833Zm0,1.167a2.916,2.916,0,1,0,2.062.854A2.917,2.917,0,0,0,296.417,197Z" transform="translate(-287.667 -195.833)" fill="#c7b299"/>
</svg>
