<svg width="24" height="13" viewBox="0 0 24 13" fill="none" xmlns="http://www.w3.org/2000/svg">
<path d="M23.875 2.32196C23.4096 1.73354 22.7667 1.31093 22.042 1.11691C21.3172 0.922885 20.5492 0.967793 19.852 1.24496L14.777 3.24496L7.25503 6.19996C6.74792 6.37047 6.19668 6.35487 5.70003 6.15596L2.06503 4.45596C1.56353 4.25288 1.01211 4.20719 0.484026 4.32496L0.151026 4.41696C-0.0329738 4.46796 -0.0489738 4.64196 0.109026 4.80796L3.82203 8.61496C4.36585 9.11566 5.03492 9.46001 5.75843 9.61158C6.48194 9.76314 7.23297 9.71629 7.93203 9.47596L12.886 7.52496L11.395 12.731C11.333 12.949 11.458 13.055 11.676 12.969L12.085 12.809C13.0726 12.37 13.9229 11.672 14.546 10.789L17.846 5.56996L23.5 3.34496C23.6023 3.31598 23.6962 3.26318 23.7742 3.1909C23.8521 3.11861 23.9118 3.0289 23.9484 2.92909C23.985 2.82929 23.9974 2.72224 23.9847 2.61671C23.9719 2.51118 23.9343 2.41018 23.875 2.32196Z" fill="white"/>
</svg>
