<svg width="524" height="259" viewBox="0 0 524 259" fill="none" xmlns="http://www.w3.org/2000/svg">
<path d="M0 4V215.729C0 216.79 0.421428 217.807 1.17157 218.557C1.92172 219.308 2.93913 219.729 4 219.729H33.964C35.0249 219.729 36.0423 220.15 36.7924 220.901C37.5426 221.651 37.964 222.668 37.964 223.729V254.617C37.9642 255.425 38.2091 256.214 38.6665 256.88C39.1238 257.546 39.7723 258.058 40.5263 258.349C41.2804 258.639 42.1047 258.695 42.8908 258.507C43.6769 258.32 44.3878 257.899 44.93 257.3L77.73 221.044C78.105 220.63 78.5627 220.298 79.0736 220.072C79.5844 219.845 80.1371 219.728 80.696 219.728H520C521.061 219.728 522.078 219.307 522.828 218.556C523.579 217.806 524 216.789 524 215.728V4C524 2.93913 523.579 1.92172 522.828 1.17157C522.078 0.421428 521.061 0 520 0H4C2.93913 0 1.92172 0.421428 1.17157 1.17157C0.421428 1.92172 0 2.93913 0 4Z" fill="white"/>
</svg>
