<svg width="113" height="48" viewBox="0 0 113 48" fill="none" xmlns="http://www.w3.org/2000/svg">
<path d="M5.28002 16.3H11.28V20.0001H1.44003V3.20007H5.28002V16.3ZM21.926 8.00006H25.526V20.0001H21.926V18.8721C21.4768 19.3673 20.9225 19.7557 20.3038 20.009C19.6851 20.2623 19.0175 20.3741 18.35 20.3361C17.5824 20.3429 16.8223 20.1834 16.1222 19.8685C15.422 19.5536 14.7983 19.0909 14.294 18.5121C13.174 17.2804 12.5722 15.6643 12.614 14.0001C12.5694 12.3426 13.1719 10.7328 14.294 9.51205C14.7948 8.92729 15.4172 8.45894 16.1178 8.13974C16.8183 7.82054 17.5802 7.65821 18.35 7.66406C19.0175 7.62605 19.6851 7.73778 20.3038 7.99109C20.9225 8.2444 21.4768 8.63287 21.926 9.12805V8.00006ZM17.006 16.136C17.5725 16.646 18.3078 16.9282 19.07 16.9282C19.8323 16.9282 20.5675 16.646 21.134 16.136C21.6451 15.5417 21.9261 14.7839 21.9261 14.0001C21.9261 13.2162 21.6451 12.4584 21.134 11.8641C20.5675 11.3541 19.8323 11.0719 19.07 11.0719C18.3078 11.0719 17.5725 11.3541 17.006 11.8641C16.4949 12.4584 16.2139 13.2162 16.2139 14.0001C16.2139 14.7839 16.4949 15.5417 17.006 16.136ZM36.4 8.00006H40V20.0001H36.4V18.8721C35.9911 19.3779 35.4645 19.7758 34.8662 20.031C34.2679 20.2863 33.6162 20.391 32.968 20.3361C32.3698 20.3504 31.7752 20.2405 31.2216 20.0133C30.668 19.7861 30.1676 19.4465 29.752 19.0161C29.3104 18.5216 28.9707 17.9448 28.7524 17.3188C28.5342 16.6928 28.4416 16.0299 28.48 15.3681V8.00006H32.08V14.8401C32.0611 15.1369 32.1024 15.4344 32.2014 15.7149C32.3004 15.9953 32.455 16.2529 32.656 16.472C33.101 16.8404 33.6639 17.036 34.2415 17.0228C34.819 17.0095 35.3724 16.7884 35.8 16.4001C36.2342 15.8864 36.4497 15.2229 36.4 14.5521V8.00006ZM46.72 10.136C46.9207 9.3983 47.4035 8.76906 48.064 8.38406C48.7434 7.97043 49.5247 7.75435 50.32 7.76007V11.8401C49.468 11.6909 48.5908 11.8527 47.848 12.2961C47.4658 12.5327 47.1575 12.8718 46.9581 13.2748C46.7587 13.6778 46.6762 14.1286 46.72 14.576V20.0001H43.12V8.00006H46.72V10.136ZM60.843 8.00006H64.443V20.0001H60.843V18.8721C60.3938 19.3673 59.8396 19.7557 59.2208 20.009C58.6021 20.2623 57.9345 20.3741 57.267 20.3361C56.4994 20.3429 55.7393 20.1834 55.0392 19.8685C54.339 19.5536 53.7153 19.0909 53.211 18.5121C52.091 17.2804 51.4892 15.6643 51.531 14.0001C51.4864 12.3426 52.0889 10.7328 53.211 9.51205C53.7118 8.92729 54.3342 8.45894 55.0348 8.13974C55.7353 7.82054 56.4972 7.65821 57.267 7.66406C57.9345 7.62605 58.6021 7.73778 59.2208 7.99109C59.8396 8.2444 60.3938 8.63287 60.843 9.12805V8.00006ZM55.923 16.136C56.4895 16.646 57.2248 16.9282 57.987 16.9282C58.7493 16.9282 59.4845 16.646 60.051 16.136C60.5621 15.5417 60.8431 14.7839 60.8431 14.0001C60.8431 13.2162 60.5621 12.4584 60.051 11.8641C59.4845 11.3541 58.7493 11.0719 57.987 11.0719C57.2248 11.0719 56.4895 11.3541 55.923 11.8641C55.412 12.4584 55.1309 13.2162 55.1309 14.0001C55.1309 14.7839 55.412 15.5417 55.923 16.136ZM76.564 22.4001C74.8296 19.0643 73.924 15.3598 73.924 11.6001C73.924 7.84031 74.8296 4.13583 76.564 0.800049H80.164C78.4296 4.13583 77.524 7.84031 77.524 11.6001C77.524 15.3598 78.4296 19.0643 80.164 22.4001H76.564ZM81.419 20.0001V17.2161L87.059 11.36C87.971 10.6097 88.5759 9.55077 88.759 8.38406C88.7717 8.14544 88.7337 7.90683 88.6473 7.68399C88.561 7.46115 88.4285 7.25914 88.2584 7.09131C88.0883 6.92347 87.8845 6.79363 87.6605 6.71033C87.4366 6.62703 87.1975 6.59217 86.959 6.60806C86.407 6.61132 85.8702 6.78968 85.426 7.11746C84.9817 7.44524 84.653 7.90553 84.487 8.43207L81.247 6.53207C81.7025 5.39824 82.5083 4.43959 83.547 3.79605C84.5574 3.17585 85.7215 2.85155 86.907 2.86005C88.3798 2.82513 89.8114 3.34807 90.915 4.32407C91.4704 4.80325 91.9101 5.40198 92.201 6.07535C92.492 6.74871 92.6267 7.47921 92.595 8.21207C92.5339 9.2223 92.2709 10.21 91.8216 11.1169C91.3722 12.0238 90.7457 12.8314 89.979 13.4921L87.2 16.3H92.84V20.0001H81.419ZM93.939 3.20007H104.979V6.41605L99.507 20.0001H95.427L100.707 6.90005H93.939V3.20007ZM109.785 22.4001H106.185C107.919 19.0643 108.825 15.3598 108.825 11.6001C108.825 7.84031 107.919 4.13583 106.185 0.800049H109.785C111.519 4.13583 112.425 7.84031 112.425 11.6001C112.425 15.3598 111.519 19.0643 109.785 22.4001ZM3.78002 44.1651C3.1076 44.1787 2.44244 44.024 1.84502 43.7151C1.30896 43.4306 0.885725 42.9721 0.64502 42.4151L1.32002 42.0151C1.52306 42.4831 1.8729 42.8724 2.3167 43.124C2.76049 43.3757 3.27413 43.4761 3.78002 43.4101C4.45029 43.4458 5.1109 43.2381 5.64002 42.8251C5.87889 42.6138 6.06652 42.3509 6.18867 42.0564C6.31082 41.7618 6.36429 41.4434 6.34502 41.1251V33.5001H7.15502V41.1201C7.17885 41.5437 7.10462 41.9671 6.93812 42.3573C6.77161 42.7476 6.51733 43.0941 6.19503 43.3701C5.5125 43.9181 4.65463 44.2005 3.78002 44.1651ZM16.273 36.5001H17.038V44.0001H16.273V42.3C15.9657 42.8669 15.5093 43.339 14.953 43.6651C14.3762 43.9991 13.7195 44.1701 13.053 44.1601C12.0147 44.1601 11.0189 43.7476 10.2847 43.0134C9.5505 42.2792 9.13802 41.2834 9.13802 40.2451C9.13802 39.2067 9.5505 38.2109 10.2847 37.4767C11.0189 36.7425 12.0147 36.33 13.053 36.33C13.7195 36.32 14.3762 36.4911 14.953 36.8251C15.5093 37.1512 15.9657 37.6232 16.273 38.1901V36.5001ZM10.843 42.5151C11.137 42.8166 11.4897 43.0546 11.8792 43.2146C12.2688 43.3745 12.687 43.453 13.108 43.4451C13.527 43.4539 13.9432 43.3758 14.3304 43.2157C14.7177 43.0557 15.0676 42.8171 15.358 42.5151C15.945 41.9071 16.273 41.0951 16.273 40.2501C16.273 39.405 15.945 38.593 15.358 37.985C15.0676 37.683 14.7177 37.4445 14.3304 37.2844C13.9432 37.1243 13.527 37.0462 13.108 37.0551C12.4784 37.0617 11.8647 37.2531 11.3429 37.6055C10.8211 37.9579 10.4144 38.4558 10.1731 39.0374C9.93188 39.6189 9.86675 40.2585 9.98585 40.8768C10.1049 41.4951 10.403 42.0647 10.843 42.5151ZM23.076 36.3351C23.4668 36.3154 23.8573 36.3788 24.2219 36.521C24.5864 36.6632 24.9167 36.881 25.191 37.1601C25.4624 37.4509 25.6726 37.7933 25.8092 38.1669C25.9457 38.5405 26.0059 38.9378 25.986 39.3351V44.0001H25.221V39.3351C25.2534 38.7246 25.0431 38.1261 24.636 37.6701C24.4253 37.4582 24.1718 37.2937 23.8924 37.1877C23.6131 37.0816 23.3143 37.0364 23.016 37.0551C22.665 37.0429 22.3153 37.1048 21.9897 37.2366C21.6641 37.3684 21.3698 37.5672 21.126 37.8201C20.5988 38.4347 20.3348 39.2322 20.391 40.0401V44.0001H19.641V36.5001H20.391V37.925C20.6288 37.4223 21.0115 37.0022 21.49 36.7189C21.9685 36.4355 22.5209 36.3018 23.076 36.3351ZM33.808 36.5001H34.558V44.0001H33.808V42.5751C33.5703 43.0778 33.1875 43.4979 32.709 43.7812C32.2305 44.0646 31.6781 44.1983 31.123 44.1651C30.7314 44.1839 30.34 44.1217 29.9735 43.9823C29.607 43.8429 29.2732 43.6294 28.993 43.3551C28.4548 42.7563 28.1745 41.9693 28.213 41.1651V36.5001H28.978V41.1651C28.9455 41.7729 29.1498 42.3697 29.548 42.83C29.7623 43.0413 30.0186 43.2052 30.3002 43.3112C30.5819 43.4171 30.8826 43.4627 31.183 43.4451C31.5341 43.4572 31.8838 43.3953 32.2094 43.2635C32.535 43.1318 32.8292 42.933 33.073 42.6801C33.6002 42.0654 33.8643 41.2679 33.808 40.4601V36.5001ZM43.774 36.5001H44.539V44.0001H43.774V42.3C43.4668 42.8669 43.0103 43.339 42.454 43.6651C41.8772 43.9991 41.2205 44.1701 40.554 44.1601C39.5157 44.1601 38.5199 43.7476 37.7857 43.0134C37.0515 42.2792 36.639 41.2834 36.639 40.2451C36.639 39.2067 37.0515 38.2109 37.7857 37.4767C38.5199 36.7425 39.5157 36.33 40.554 36.33C41.2205 36.32 41.8772 36.4911 42.454 36.8251C43.0103 37.1512 43.4668 37.6232 43.774 38.1901V36.5001ZM38.344 42.5151C38.638 42.8166 38.9907 43.0546 39.3802 43.2146C39.7698 43.3745 40.188 43.453 40.609 43.4451C41.028 43.4539 41.4442 43.3758 41.8314 43.2157C42.2187 43.0557 42.5686 42.8171 42.859 42.5151C43.4459 41.9071 43.774 41.0951 43.774 40.2501C43.774 39.405 43.4459 38.593 42.859 37.985C42.5686 37.683 42.2187 37.4445 41.8314 37.2844C41.4442 37.1243 41.028 37.0462 40.609 37.0551C39.9794 37.0617 39.3657 37.2531 38.8439 37.6055C38.3221 37.9579 37.9154 38.4558 37.6741 39.0374C37.4329 39.6189 37.3677 40.2585 37.4868 40.8768C37.6059 41.4951 37.904 42.0647 38.344 42.5151ZM47.892 37.9701C48.0862 37.4742 48.4343 37.0536 48.8852 36.7701C49.3361 36.4866 49.8659 36.3552 50.397 36.3951V37.1151C50.0686 37.1061 49.7417 37.1625 49.4353 37.2809C49.1289 37.3994 48.849 37.5775 48.612 37.8051C48.3571 38.0735 48.1613 38.3924 48.0373 38.7412C47.9132 39.09 47.8638 39.4609 47.892 39.83V44.0001H47.142V36.5001H47.892V37.9701ZM57.854 36.5001H58.664L55.424 44.6901C55.1771 45.3697 54.7523 45.9706 54.194 46.4301C53.9559 46.635 53.6795 46.7909 53.3809 46.8888C53.0823 46.9866 52.7673 47.0244 52.454 47.0001V46.3C52.6863 46.3215 52.9205 46.2953 53.1423 46.2231C53.3642 46.1509 53.5689 46.0342 53.744 45.8801C54.1679 45.5231 54.4933 45.0635 54.689 44.5451L54.854 44.1451L51.4 36.5001H52.21L55.24 43.175L57.854 36.5001ZM60.238 42.9801L59.428 46.1001H58.738L59.308 42.9801H60.238ZM66.392 44.0001V43.2801L70.247 39.3201C71.1566 38.5702 71.7611 37.5141 71.947 36.3501C71.9631 36.0436 71.9124 35.7374 71.7984 35.4525C71.6845 35.1676 71.51 34.9109 71.287 34.7001C70.8347 34.2953 70.2437 34.0804 69.637 34.1001C69.1065 34.0744 68.581 34.2134 68.1325 34.498C67.684 34.7827 67.3346 35.199 67.132 35.6901L66.457 35.2901C66.7365 34.694 67.1851 34.1932 67.747 33.8501C68.3172 33.5073 68.9718 33.3306 69.637 33.3401C70.4431 33.3238 71.2255 33.6132 71.827 34.1501C72.1368 34.4248 72.3812 34.7655 72.5421 35.1471C72.7031 35.5286 72.7765 35.9414 72.757 36.3551C72.7504 36.9778 72.5684 37.586 72.232 38.11C71.8217 38.758 71.3385 39.3569 70.792 39.8951L67.537 43.2401H72.997V44.0001H66.392ZM81.431 42.7001C81.0981 43.1555 80.6624 43.526 80.1594 43.7813C79.6564 44.0367 79.1002 44.1698 78.536 44.1698C77.9719 44.1698 77.4157 44.0367 76.9127 43.7813C76.4096 43.526 75.974 43.1555 75.641 42.7001C74.9625 41.496 74.606 40.1372 74.606 38.7551C74.606 37.3729 74.9625 36.0142 75.641 34.8101C75.974 34.3546 76.4096 33.9841 76.9127 33.7288C77.4157 33.4734 77.9719 33.3403 78.536 33.3403C79.1002 33.3403 79.6564 33.4734 80.1594 33.7288C80.6624 33.9841 81.0981 34.3546 81.431 34.8101C82.1095 36.0142 82.466 37.3729 82.466 38.7551C82.466 40.1372 82.1095 41.496 81.431 42.7001ZM76.241 42.1901C76.4955 42.5644 76.8376 42.8708 77.2376 43.0826C77.6376 43.2944 78.0834 43.4051 78.536 43.4051C78.9886 43.4051 79.4344 43.2944 79.8344 43.0826C80.2344 42.8708 80.5766 42.5644 80.831 42.1901C81.4376 41.151 81.7246 39.9563 81.656 38.7551C81.7262 37.5585 81.439 36.368 80.831 35.3351C80.5795 34.9568 80.2383 34.6465 79.8379 34.4319C79.4375 34.2173 78.9903 34.105 78.536 34.105C78.0817 34.105 77.6345 34.2173 77.2341 34.4319C76.8337 34.6465 76.4925 34.9568 76.241 35.3351C75.633 36.368 75.3459 37.5585 75.416 38.7551C75.3484 39.9546 75.6354 41.1475 76.241 42.1851V42.1901ZM84.057 44.0001V43.2801L87.912 39.3201C88.8197 38.5694 89.4224 37.5134 89.607 36.3501C89.6231 36.0436 89.5724 35.7374 89.4584 35.4525C89.3445 35.1676 89.17 34.9109 88.947 34.7001C88.4947 34.2953 87.9037 34.0804 87.297 34.1001C86.7673 34.0754 86.2429 34.2149 85.7954 34.4995C85.348 34.7841 84.9993 35.1999 84.797 35.6901L84.122 35.2901C84.4015 34.694 84.8501 34.1932 85.412 33.8501C85.9822 33.5073 86.6368 33.3306 87.302 33.3401C88.1081 33.3238 88.8905 33.6132 89.492 34.1501C89.8018 34.4248 90.0462 34.7655 90.2071 35.1471C90.3681 35.5286 90.4415 35.9414 90.422 36.3551C90.4154 36.9778 90.2334 37.586 89.897 38.11C89.4867 38.758 89.0035 39.3569 88.457 39.8951L85.202 43.2401H90.662V44.0001H84.057ZM99.096 42.7001C98.7631 43.1555 98.3274 43.526 97.8244 43.7813C97.3214 44.0367 96.7652 44.1698 96.201 44.1698C95.6369 44.1698 95.0807 44.0367 94.5777 43.7813C94.0746 43.526 93.6389 43.1555 93.306 42.7001C92.6275 41.496 92.271 40.1372 92.271 38.7551C92.271 37.3729 92.6275 36.0142 93.306 34.8101C93.6389 34.3546 94.0746 33.9841 94.5777 33.7288C95.0807 33.4734 95.6369 33.3403 96.201 33.3403C96.7652 33.3403 97.3214 33.4734 97.8244 33.7288C98.3274 33.9841 98.7631 34.3546 99.096 34.8101C99.7745 36.0142 100.131 37.3729 100.131 38.7551C100.131 40.1372 99.7745 41.496 99.096 42.7001ZM93.906 42.1901C94.1605 42.5644 94.5026 42.8708 94.9026 43.0826C95.3027 43.2944 95.7484 43.4051 96.201 43.4051C96.6536 43.4051 97.0994 43.2944 97.4994 43.0826C97.8994 42.8708 98.2416 42.5644 98.496 42.1901C99.1026 41.151 99.3896 39.9563 99.321 38.7551C99.3912 37.5585 99.104 36.368 98.496 35.3351C98.2445 34.9568 97.9034 34.6465 97.503 34.4319C97.1026 34.2173 96.6553 34.105 96.201 34.105C95.7467 34.105 95.2995 34.2173 94.8991 34.4319C94.4987 34.6465 94.1576 34.9568 93.906 35.3351C93.298 36.368 93.0109 37.5585 93.081 38.7551C93.0134 39.9546 93.3004 41.1475 93.906 42.1851V42.1901Z" fill="black"/>
</svg>
