<svg width="106" height="47" viewBox="0 0 106 47" fill="none" xmlns="http://www.w3.org/2000/svg">
<path d="M10.272 20L7.10001 14.48H5.28001V20H1.44001V3.20005H8.16001C8.91732 3.19687 9.66775 3.34369 10.368 3.63204C11.0683 3.92038 11.7045 4.34454 12.24 4.88003C12.7755 5.41553 13.1997 6.05177 13.488 6.75204C13.7764 7.45231 13.9232 8.20274 13.92 8.96005C13.9223 9.97676 13.6215 10.9711 13.056 11.816C12.5032 12.6735 11.7331 13.3691 10.824 13.832L14.4 20H10.272ZM5.28001 6.80005V11.12H8.16001C8.41529 11.122 8.66783 11.0675 8.89951 10.9603C9.1312 10.8531 9.33628 10.6959 9.50001 10.5C9.87138 10.0745 10.076 9.52885 10.076 8.96405C10.076 8.39925 9.87138 7.85358 9.50001 7.42805C9.33623 7.23093 9.13069 7.07269 8.89825 6.96477C8.6658 6.85685 8.41228 6.80195 8.15601 6.80405L5.28001 6.80005ZM19.172 15.44C19.3969 16.0005 19.8021 16.4699 20.3237 16.7742C20.8453 17.0785 21.4535 17.2002 22.052 17.12C22.4784 17.1418 22.9044 17.0717 23.3012 16.9143C23.6981 16.757 24.0564 16.5161 24.352 16.208L27.232 17.864C26.6371 18.6817 25.8461 19.3366 24.9318 19.7685C24.0176 20.2005 23.0094 20.3956 22 20.336C21.1124 20.3778 20.2254 20.2399 19.3924 19.9306C18.5593 19.6213 17.7973 19.147 17.152 18.536C16.5583 17.9428 16.0924 17.2343 15.7828 16.4542C15.4733 15.6741 15.3267 14.8389 15.352 14C15.3269 13.1571 15.4752 12.318 15.7878 11.5347C16.1004 10.7515 16.5705 10.0408 17.1691 9.44671C17.7676 8.85264 18.4819 8.38788 19.2675 8.08123C20.0531 7.77458 20.8933 7.63258 21.736 7.66405C22.548 7.64294 23.3552 7.79465 24.1041 8.1091C24.853 8.42356 25.5265 8.89359 26.08 9.48805C26.66 10.0842 27.1143 10.7908 27.4159 11.5658C27.7176 12.3409 27.8604 13.1687 27.836 14C27.8389 14.4838 27.7906 14.9665 27.692 15.44H19.172ZM19.1 12.752H24.26C24.1421 12.1788 23.818 11.6687 23.3491 11.3185C22.8802 10.9683 22.2991 10.8023 21.716 10.852C21.123 10.7938 20.5293 10.9551 20.0472 11.3052C19.5651 11.6554 19.2281 12.1701 19.1 12.752ZM37.39 7.66405C37.9848 7.64824 38.5764 7.75757 39.1262 7.98497C39.6761 8.21236 40.1721 8.55274 40.582 8.98405C41.0312 9.47458 41.3776 10.0501 41.6009 10.6766C41.8242 11.3031 41.9198 11.968 41.882 12.632V20H38.282V13.16C38.3024 12.8647 38.2594 12.5685 38.156 12.2911C38.0525 12.0138 37.8909 11.7618 37.682 11.552C37.4863 11.3597 37.2534 11.2095 36.9975 11.1104C36.7416 11.0114 36.4682 10.9656 36.194 10.976C35.8935 10.9605 35.5931 11.008 35.312 11.1155C35.031 11.223 34.7755 11.388 34.562 11.6C34.1278 12.1137 33.9124 12.7773 33.962 13.448V20H30.362V8.00005H33.962V9.12805C34.3705 8.62281 34.8965 8.22524 35.4941 7.97005C36.0916 7.71486 36.7425 7.6098 37.39 7.66405ZM48.046 15.44C48.2709 16.0005 48.6761 16.4699 49.1977 16.7742C49.7193 17.0785 50.3275 17.2002 50.926 17.12C51.3523 17.1418 51.7784 17.0717 52.1752 16.9143C52.5721 16.757 52.9304 16.5161 53.226 16.208L56.106 17.864C55.5111 18.6817 54.7201 19.3366 53.8058 19.7685C52.8916 20.2005 51.8834 20.3956 50.874 20.336C49.9864 20.3778 49.0994 20.2399 48.2664 19.9306C47.4333 19.6213 46.6713 19.147 46.026 18.536C45.4331 17.9425 44.9679 17.2338 44.659 16.4538C44.3501 15.6737 44.2041 14.8386 44.23 14C44.2049 13.1571 44.3532 12.318 44.6658 11.5347C44.9784 10.7515 45.4485 10.0408 46.0471 9.44671C46.6456 8.85264 47.3599 8.38788 48.1455 8.08123C48.9311 7.77458 49.7713 7.63258 50.614 7.66405C51.426 7.64294 52.2332 7.79465 52.9821 8.1091C53.731 8.42356 54.4045 8.89359 54.958 9.48805C55.5373 10.0845 55.9908 10.7912 56.2918 11.5663C56.5927 12.3414 56.735 13.169 56.71 14C56.7129 14.4838 56.6646 14.9665 56.566 15.44H48.046ZM47.974 12.752H53.134C53.0161 12.1788 52.692 11.6687 52.2231 11.3185C51.7542 10.9683 51.1731 10.8023 50.59 10.852C49.997 10.7938 49.4033 10.9551 48.9212 11.3052C48.439 11.6554 48.1021 12.1701 47.974 12.752ZM68.232 22.4001C66.4975 19.0643 65.592 15.3598 65.592 11.6C65.592 7.84029 66.4975 4.13583 68.232 0.800049H71.832C70.0975 4.13583 69.192 7.84029 69.192 11.6C69.192 15.3598 70.0975 19.0643 71.832 22.4001H68.232ZM81.464 10.016C82.4858 10.349 83.3871 10.975 84.056 11.816C84.7135 12.6377 85.0617 13.664 85.04 14.716C85.0794 15.4941 84.9398 16.2709 84.6319 16.9865C84.324 17.7022 83.8561 18.3377 83.264 18.8441C82.0436 19.849 80.5003 20.3777 78.92 20.3321C77.6681 20.3516 76.4336 20.0368 75.344 19.42C74.2997 18.8048 73.4904 17.8589 73.044 16.732L76.356 14.812C76.5157 15.3575 76.858 15.8316 77.3254 16.1549C77.7929 16.4782 78.3573 16.6311 78.924 16.588C79.5369 16.6322 80.144 16.4437 80.624 16.06C80.806 15.8867 80.9509 15.6782 81.0499 15.4472C81.1489 15.2161 81.2 14.9674 81.2 14.716C81.2 14.4647 81.1489 14.216 81.0499 13.9849C80.9509 13.7539 80.806 13.5454 80.624 13.372C80.144 12.9884 79.5369 12.7999 78.924 12.844H78.132L76.668 10.66L79.716 6.79605H73.572V3.20005H84.372V6.32005L81.464 10.016ZM98.258 8.79205C98.2832 10.0016 97.9401 11.1901 97.274 12.2L92.138 20H87.722L91.37 14.7C89.8351 14.6306 88.3845 13.9783 87.314 12.876C86.2836 11.7721 85.7315 10.3055 85.778 8.79605C85.7499 8.00256 85.8893 7.21206 86.187 6.47601C86.4848 5.73996 86.9342 5.07487 87.506 4.52405C88.7663 3.45496 90.3653 2.86812 92.018 2.86812C93.6707 2.86812 95.2697 3.45496 96.53 4.52405C97.1013 5.07442 97.5505 5.73886 97.8482 6.47417C98.1459 7.20949 98.2855 7.99923 98.258 8.79205ZM90.314 7.11205C90.0812 7.32359 89.8979 7.58375 89.7769 7.87409C89.6559 8.16442 89.6003 8.47782 89.614 8.79205C89.6024 9.10898 89.6589 9.4247 89.7797 9.71795C89.9004 10.0112 90.0826 10.2752 90.314 10.492C90.7904 10.8949 91.3941 11.1159 92.018 11.1159C92.6419 11.1159 93.2456 10.8949 93.722 10.492C94.1681 10.037 94.418 9.42525 94.418 8.78805C94.418 8.15085 94.1681 7.53905 93.722 7.08405C93.2552 6.66754 92.6474 6.44442 92.022 6.46005C91.3891 6.4444 90.7755 6.67864 90.314 7.11205ZM103.047 22.4001H99.447C101.181 19.0643 102.087 15.3598 102.087 11.6C102.087 7.84029 101.181 4.13583 99.447 0.800049H103.047C104.781 4.13583 105.687 7.84029 105.687 11.6C105.687 15.3598 104.781 19.0643 103.047 22.4001ZM9.96002 42.59C9.0727 43.4872 7.90156 44.0487 6.64642 44.1787C5.39128 44.3087 4.12992 43.9991 3.07758 43.3028C2.02525 42.6065 1.24714 41.5666 0.876031 40.3605C0.504926 39.1545 0.563821 37.857 1.04266 36.6895C1.52151 35.5221 2.39063 34.5569 3.50173 33.9588C4.61282 33.3607 5.89703 33.1667 7.13523 33.4098C8.37343 33.653 9.4889 34.3183 10.2913 35.2922C11.0937 36.2661 11.5332 37.4882 11.535 38.75C11.5487 39.4638 11.416 40.1727 11.1452 40.8331C10.8743 41.4936 10.4709 42.0915 9.96002 42.59ZM2.83501 42.05C3.2613 42.4875 3.77273 42.833 4.33772 43.0652C4.90271 43.2974 5.50927 43.4114 6.12 43.4001C6.72863 43.4122 7.33322 43.2986 7.8959 43.0663C8.45858 42.834 8.96723 42.488 9.39001 42.05C9.82698 41.6202 10.172 41.106 10.4041 40.5388C10.6361 39.9715 10.7504 39.3629 10.74 38.75C10.7513 38.1393 10.6374 37.5327 10.4052 36.9678C10.173 36.4028 9.8275 35.8913 9.39001 35.465C8.96935 35.0233 8.46143 34.6738 7.89849 34.4388C7.33556 34.2038 6.72991 34.0885 6.12 34.1C5.50798 34.0892 4.90031 34.2048 4.33505 34.4397C3.76978 34.6746 3.2591 35.0236 2.83501 35.465C2.4016 35.8936 2.05979 36.4058 1.83031 36.9705C1.60082 37.5352 1.48845 38.1406 1.50001 38.75C1.48913 39.3616 1.60176 39.9691 1.83115 40.5361C2.06053 41.1031 2.40197 41.6181 2.83501 42.05ZM17.135 44.1651C16.5354 44.1617 15.9445 44.0207 15.4081 43.7529C14.8716 43.485 14.4038 43.0975 14.0407 42.6203C13.6777 42.143 13.4292 41.5888 13.3143 41.0002C13.1994 40.4117 13.2212 39.8047 13.3781 39.2259C13.535 38.6472 13.8227 38.1122 14.219 37.6622C14.6154 37.2123 15.1098 36.8594 15.6642 36.6308C16.2185 36.4022 16.818 36.304 17.4163 36.3437C18.0146 36.3835 18.5958 36.5601 19.115 36.8601C19.6834 37.1771 20.1354 37.6677 20.405 38.26L19.79 38.62C19.569 38.1388 19.2015 37.7398 18.74 37.48C18.2548 37.1956 17.7027 37.045 17.1403 37.0437C16.5778 37.0424 16.0251 37.1904 15.5385 37.4726C15.0519 37.7547 14.649 38.161 14.3708 38.6498C14.0926 39.1387 13.9491 39.6926 13.955 40.2551C13.9456 40.6772 14.0219 41.0968 14.1791 41.4887C14.3364 41.8806 14.5714 42.2365 14.87 42.535C15.3754 43.0237 16.025 43.3362 16.7222 43.4263C17.4194 43.5164 18.127 43.3792 18.74 43.035C19.209 42.7692 19.591 42.3732 19.84 41.8951L20.47 42.2701C20.1652 42.8577 19.6962 43.3441 19.12 43.67C18.5146 44.0089 17.8296 44.1798 17.136 44.1651H17.135ZM26.248 37.2351H24.013V42.1101C23.9843 42.4384 24.069 42.7666 24.253 43.0401C24.3473 43.1413 24.461 43.2226 24.5872 43.2793C24.7134 43.3359 24.8497 43.3668 24.988 43.37C25.4085 43.3872 25.8298 43.3722 26.248 43.3251V44C25.4903 44.1792 24.6948 44.1054 23.983 43.7901C23.7202 43.6025 23.5131 43.3472 23.3837 43.0514C23.2543 42.7557 23.2074 42.4303 23.248 42.1101V37.2351H21.6V36.5H23.25V34.625L24.015 34.4001V36.5H26.25L26.248 37.2351ZM31.329 44.1651C30.8099 44.1752 30.2941 44.0809 29.8122 43.8876C29.3303 43.6943 28.8922 43.4061 28.524 43.0401C28.1538 42.6773 27.8616 42.2427 27.6656 41.7629C27.4695 41.2831 27.3737 40.7683 27.384 40.25C27.3725 39.7339 27.4678 39.221 27.664 38.7434C27.8602 38.2659 28.153 37.834 28.524 37.475C28.89 37.105 29.3274 36.8132 29.8095 36.6172C30.2917 36.4213 30.8086 36.3253 31.329 36.335C31.8449 36.3254 32.3573 36.4216 32.8345 36.6177C33.3118 36.8138 33.7439 37.1056 34.104 37.475C34.4789 37.8318 34.7753 38.2629 34.9742 38.7407C35.173 39.2186 35.2701 39.7326 35.259 40.25C35.2621 40.7663 35.1624 41.278 34.9658 41.7554C34.7692 42.2327 34.4796 42.6662 34.1139 43.0306C33.7481 43.3949 33.3135 43.6828 32.8354 43.8776C32.3573 44.0724 31.8452 44.1701 31.329 44.1651ZM29.064 42.515C29.358 42.8166 29.7106 43.0547 30.1002 43.2146C30.4898 43.3746 30.908 43.453 31.329 43.445C31.7479 43.4539 32.1642 43.3758 32.5514 43.2157C32.9387 43.0557 33.2886 42.8171 33.579 42.515C34.1659 41.9071 34.494 41.0951 34.494 40.25C34.494 39.405 34.1659 38.593 33.579 37.9851C33.2886 37.683 32.9387 37.4444 32.5514 37.2844C32.1642 37.1243 31.7479 37.0462 31.329 37.055C30.6994 37.0617 30.0856 37.2531 29.5639 37.6055C29.0421 37.9579 28.6354 38.4558 28.3941 39.0374C28.1529 39.6189 28.0877 40.2585 28.2068 40.8768C28.3259 41.4951 28.624 42.0647 29.064 42.515ZM41.339 36.335C41.8515 36.336 42.3587 36.4381 42.8316 36.6355C43.3045 36.833 43.7337 37.1218 44.0947 37.4856C44.4557 37.8493 44.7412 38.2808 44.935 38.7552C45.1288 39.2296 45.227 39.7376 45.224 40.25C45.2343 40.7683 45.1385 41.2831 44.9424 41.7629C44.7464 42.2427 44.4543 42.6773 44.084 43.0401C43.7276 43.4051 43.3001 43.6933 42.828 43.8868C42.3559 44.0803 41.8491 44.175 41.339 44.1651C40.6643 44.1745 40.0001 43.998 39.419 43.655C38.8645 43.3176 38.4145 42.833 38.119 42.2551V44H37.369V33.5H38.119V38.2401C38.4145 37.6621 38.8645 37.1775 39.419 36.84C40.0009 36.4986 40.6655 36.3239 41.34 36.335H41.339ZM39.029 42.515C39.323 42.8166 39.6756 43.0547 40.0652 43.2146C40.4548 43.3746 40.873 43.453 41.294 43.445C41.713 43.4539 42.1292 43.3758 42.5164 43.2157C42.9037 43.0557 43.2536 42.8171 43.544 42.515C44.1399 41.9118 44.4741 41.098 44.4741 40.25C44.4741 39.4021 44.1399 38.5883 43.544 37.9851C43.2536 37.683 42.9037 37.4444 42.5164 37.2844C42.1292 37.1243 41.713 37.0462 41.294 37.055C40.6644 37.0617 40.0506 37.2531 39.5289 37.6055C39.0071 37.9579 38.6004 38.4558 38.3591 39.0374C38.1179 39.6189 38.0527 40.2585 38.1718 40.8768C38.2909 41.4951 38.589 42.0647 39.029 42.515ZM50.707 36.335C51.2112 36.318 51.7128 36.4142 52.1749 36.6167C52.637 36.8192 53.0478 37.1228 53.377 37.5051C54.06 38.2662 54.4297 39.2576 54.412 40.28C54.4104 40.3403 54.4054 40.4004 54.397 40.46V40.64H47.6C47.662 41.4235 48.0216 42.1535 48.605 42.68C49.1267 43.0981 49.7577 43.3572 50.4227 43.4263C51.0876 43.4955 51.7584 43.3718 52.355 43.07C52.7816 42.8429 53.1352 42.4997 53.375 42.0801L54.035 42.4701C53.7169 42.9978 53.2604 43.4283 52.715 43.715C52.1118 44.0229 51.4421 44.1774 50.765 44.1651C50.2427 44.1827 49.7221 44.0944 49.2349 43.9053C48.7476 43.7163 48.3037 43.4304 47.93 43.065C47.2217 42.3044 46.8255 41.3052 46.8199 40.2659C46.8144 39.2266 47.1999 38.2232 47.9 37.4551C48.2645 37.0834 48.7024 36.7919 49.1859 36.599C49.6694 36.4062 50.1878 36.3163 50.708 36.335H50.707ZM50.707 37.055C49.9203 37.0312 49.1557 37.3166 48.577 37.85C48.0038 38.3852 47.6547 39.1177 47.6 39.9001H53.63C53.5951 39.1062 53.2504 38.3577 52.67 37.815C52.1402 37.3155 51.4361 37.0427 50.708 37.055H50.707ZM57.215 37.9701C57.409 37.475 57.7563 37.0551 58.2061 36.7717C58.656 36.4882 59.1847 36.3563 59.715 36.3951V37.1151C59.3866 37.1061 59.0597 37.1625 58.7533 37.2809C58.4468 37.3994 58.167 37.5775 57.93 37.805C57.6751 38.0735 57.4793 38.3924 57.3552 38.7412C57.2312 39.09 57.1818 39.4609 57.21 39.8301V44H56.46V36.5H57.21L57.215 37.9701ZM61.76 42.98L60.95 46.1H60.26L60.83 42.98H61.76ZM67.915 44V43.28L71.77 39.32C72.6777 38.5694 73.2804 37.5134 73.465 36.35C73.4811 36.0436 73.4304 35.7374 73.3164 35.4525C73.2025 35.1676 73.028 34.9109 72.805 34.7001C72.3526 34.2953 71.7617 34.0804 71.155 34.1C70.6245 34.0743 70.0989 34.2133 69.6505 34.498C69.202 34.7826 68.8526 35.199 68.65 35.69L67.975 35.2901C68.2545 34.6939 68.7031 34.1932 69.265 33.85C69.8352 33.5073 70.4898 33.3306 71.155 33.34C71.9611 33.3238 72.7435 33.6132 73.345 34.1501C73.6542 34.4243 73.8981 34.7641 74.059 35.1448C74.2199 35.5254 74.2937 35.9372 74.275 36.35C74.2684 36.9728 74.0864 37.581 73.75 38.105C73.3397 38.753 72.8565 39.3519 72.31 39.89L69.055 43.2351H74.515V44H67.915ZM82.954 42.695C82.6211 43.1505 82.1854 43.521 81.6824 43.7763C81.1794 44.0317 80.6232 44.1648 80.059 44.1648C79.4949 44.1648 78.9387 44.0317 78.4356 43.7763C77.9326 43.521 77.4969 43.1505 77.164 42.695C76.4193 41.5188 76.0576 40.1404 76.129 38.75C76.0576 37.3596 76.4193 35.9813 77.164 34.805C77.4969 34.3496 77.9326 33.9791 78.4356 33.7238C78.9387 33.4684 79.4949 33.3353 80.059 33.3353C80.6232 33.3353 81.1794 33.4684 81.6824 33.7238C82.1854 33.9791 82.6211 34.3496 82.954 34.805C83.6987 35.9813 84.0604 37.3596 83.989 38.75C84.0604 40.1404 83.6987 41.5188 82.954 42.695ZM77.764 42.1851C78.0185 42.5594 78.3606 42.8658 78.7606 43.0776C79.1606 43.2893 79.6064 43.4001 80.059 43.4001C80.5116 43.4001 80.9574 43.2893 81.3574 43.0776C81.7574 42.8658 82.0996 42.5594 82.354 42.1851C82.9606 41.146 83.2476 39.9512 83.179 38.75C83.2492 37.5535 82.962 36.363 82.354 35.3301C82.1025 34.9518 81.7613 34.6415 81.3609 34.4269C80.9605 34.2123 80.5133 34.1 80.059 34.1C79.6047 34.1 79.1575 34.2123 78.7571 34.4269C78.3567 34.6415 78.0155 34.9518 77.764 35.3301C77.156 36.363 76.8689 37.5535 76.939 38.75C76.8704 39.9512 77.1574 41.146 77.764 42.1851ZM87.833 33.5H88.508V44H87.713V34.37L85.283 35.135L85.083 34.445L87.833 33.5ZM97.659 36.785C97.6712 37.5356 97.4454 38.2707 97.014 38.885L93.5 44H92.6L95.285 40.085C94.9097 40.1944 94.5209 40.2499 94.13 40.25C93.6648 40.2671 93.2009 40.191 92.7655 40.0261C92.3302 39.8613 91.9322 39.611 91.595 39.2901C91.2663 38.9632 91.0087 38.572 90.8383 38.141C90.668 37.7099 90.5885 37.2483 90.605 36.785C90.5888 36.3263 90.6685 35.8693 90.839 35.4431C91.0094 35.017 91.2669 34.6311 91.595 34.3101C92.2902 33.6825 93.1935 33.335 94.13 33.335C95.0666 33.335 95.9698 33.6825 96.665 34.3101C96.9938 34.6307 97.252 35.0165 97.4232 35.4427C97.5944 35.8688 97.6747 36.326 97.659 36.785ZM91.419 36.785C91.4366 37.3209 91.6081 37.8404 91.913 38.2814C92.218 38.7224 92.6434 39.0662 93.1386 39.2719C93.6337 39.4775 94.1776 39.5363 94.7053 39.4411C95.2329 39.3459 95.722 39.1008 96.114 38.7351C96.5965 38.2032 96.8638 37.5107 96.8638 36.7925C96.8638 36.0744 96.5965 35.3819 96.114 34.85C95.5676 34.3669 94.8634 34.1002 94.134 34.1002C93.4046 34.1002 92.7004 34.3669 92.154 34.85C91.9078 35.1067 91.7159 35.4103 91.5896 35.7428C91.4633 36.0752 91.4053 36.4297 91.419 36.785Z" fill="black"/>
</svg>
