<svg width="524" height="259" viewBox="0 0 524 259" fill="none" xmlns="http://www.w3.org/2000/svg">
<path d="M0 255V43.271C0 42.2101 0.421428 41.1927 1.17157 40.4425C1.92172 39.6924 2.93913 39.271 4 39.271H33.964C35.0249 39.271 36.0423 38.8495 36.7924 38.0994C37.5426 37.3493 37.964 36.3318 37.964 35.271V4.38298C37.9642 3.57491 38.2091 2.78584 38.6665 2.11968C39.1238 1.45352 39.7723 0.941518 40.5263 0.651085C41.2804 0.360651 42.1047 0.305413 42.8908 0.492645C43.6769 0.679877 44.3878 1.10079 44.93 1.69997L77.73 37.956C78.105 38.3704 78.5627 38.7016 79.0736 38.9282C79.5844 39.1549 80.1371 39.272 80.696 39.272H520C521.061 39.272 522.078 39.6934 522.828 40.4436C523.579 41.1937 524 42.2111 524 43.272V255C524 256.061 523.579 257.078 522.828 257.828C522.078 258.579 521.061 259 520 259H4C2.93913 259 1.92172 258.579 1.17157 257.828C0.421428 257.078 0 256.061 0 255Z" fill="white"/>
</svg>
