<svg width="24" height="18" viewBox="0 0 24 18" fill="none" xmlns="http://www.w3.org/2000/svg">
<path fill-rule="evenodd" clip-rule="evenodd" d="M16.436 1.83594C16.8357 1.84667 17.2291 1.93844 17.5923 2.10569C17.9555 2.27294 18.2809 2.51219 18.549 2.80894L19.655 6.49994C14.5919 7.47263 9.39 7.47263 4.32696 6.49994L5.46696 2.81094C5.73056 2.51766 6.05046 2.28039 6.40761 2.11324C6.76477 1.94608 7.15189 1.85246 7.54596 1.83794C10.5015 1.53528 13.4803 1.53461 16.436 1.83594ZM17.778 15.0839V16.7269C17.7787 16.9935 17.885 17.2489 18.0735 17.4374C18.262 17.6259 18.5174 17.7321 18.784 17.7329H21.735C21.9965 17.7259 22.2449 17.6166 22.4268 17.4285C22.6087 17.2405 22.7096 16.9886 22.708 16.7269C22.708 14.2449 22.742 11.7629 22.742 9.28094C22.608 8.98094 22.507 8.64394 22.373 8.34194C25.023 8.57694 24.285 5.92694 21.266 6.16194L19.924 2.33894C19.676 1.80271 19.2973 1.33742 18.8225 0.985838C18.3477 0.634261 17.7922 0.407684 17.207 0.326939C13.754 -0.109305 10.2599 -0.109305 6.80696 0.326939C6.22226 0.408157 5.66734 0.634952 5.19313 0.986503C4.71892 1.33805 4.34062 1.8031 4.09296 2.33894L2.71796 6.16294C-0.267041 5.92794 -1.03804 8.57794 1.64496 8.34294C1.51096 8.64294 1.40996 8.97994 1.27596 9.28194V16.7279C1.28255 16.9927 1.39065 17.2447 1.5779 17.432C1.76516 17.6192 2.01723 17.7273 2.28196 17.7339H5.23296C5.49787 17.7276 5.75019 17.6196 5.93765 17.4323C6.12511 17.2451 6.23336 16.9928 6.23996 16.7279V15.0849L17.778 15.0839ZM3.11996 11.1599C3.11996 10.6899 3.15396 10.0869 3.15396 9.85194C3.18796 9.15194 4.32796 9.08094 4.62996 9.25194C4.66396 9.25194 6.80996 10.1909 7.88296 10.6939C7.96944 10.8429 8.01213 11.0132 8.00611 11.1853C8.0001 11.3575 7.94563 11.5244 7.84896 11.6669C5.83696 12.0999 3.92496 12.1999 3.11996 11.1599ZM20.896 11.1599C20.896 10.6899 20.829 10.0869 20.829 9.85194C20.829 9.15194 19.689 9.08094 19.387 9.25194C19.32 9.25194 17.207 10.1909 16.134 10.6939C16.043 10.8399 15.9948 11.0085 15.9948 11.1804C15.9948 11.3524 16.043 11.521 16.134 11.6669C18.18 12.0999 20.058 12.1999 20.9 11.1599H20.896Z" fill="white"/>
</svg>
